ISO-10303-21;
HEADER;
/* Generated by software containing ST-Developer
 * from STEP Tools, Inc. (www.steptools.com) 
 */

FILE_DESCRIPTION(
/* description */ (''),
/* implementation_level */ '2;1');

FILE_NAME(
/* name */ 'osupadplate.step',
/* time_stamp */ '2026-01-24T10:02:49Z',
/* author */ (''),
/* organization */ (''),
/* preprocessor_version */ 'ST-DEVELOPER v20.1',
/* originating_system */ 'Autodesk Translation Framework v14.21.0.0',
/* authorisation */ '');

FILE_SCHEMA (('AUTOMOTIVE_DESIGN { 1 0 10303 214 3 1 1 }'));
ENDSEC;

DATA;
#10=MECHANICAL_DESIGN_GEOMETRIC_PRESENTATION_REPRESENTATION('',(#13),#2107);
#11=SHAPE_REPRESENTATION_RELATIONSHIP('SRR','None',#2114,#12);
#12=ADVANCED_BREP_SHAPE_REPRESENTATION('',(#14),#2106);
#13=STYLED_ITEM('',(#2124),#14);
#14=MANIFOLD_SOLID_BREP('plate',#1279);
#15=CYLINDRICAL_SURFACE('',#1336,0.499999999999998);
#16=CYLINDRICAL_SURFACE('',#1339,0.499999999999998);
#17=CYLINDRICAL_SURFACE('',#1342,0.500000000000003);
#18=CYLINDRICAL_SURFACE('',#1345,0.5);
#19=CYLINDRICAL_SURFACE('',#1347,1.7);
#20=CYLINDRICAL_SURFACE('',#1349,0.499999999999998);
#21=CYLINDRICAL_SURFACE('',#1352,0.499999999999998);
#22=CYLINDRICAL_SURFACE('',#1355,0.499999999999998);
#23=CYLINDRICAL_SURFACE('',#1358,0.5);
#24=CYLINDRICAL_SURFACE('',#1361,1.7);
#25=CYLINDRICAL_SURFACE('',#1363,1.7);
#26=CYLINDRICAL_SURFACE('',#1366,0.5);
#27=CYLINDRICAL_SURFACE('',#1369,0.499999999999998);
#28=CYLINDRICAL_SURFACE('',#1372,0.499999999999998);
#29=CYLINDRICAL_SURFACE('',#1375,0.5);
#30=CYLINDRICAL_SURFACE('',#1378,0.499999999999998);
#31=CYLINDRICAL_SURFACE('',#1381,0.499999999999998);
#32=CYLINDRICAL_SURFACE('',#1384,0.499999999999998);
#33=CYLINDRICAL_SURFACE('',#1387,0.5);
#34=CYLINDRICAL_SURFACE('',#1389,1.7);
#35=FACE_BOUND('',#165,.T.);
#36=FACE_BOUND('',#166,.T.);
#37=FACE_BOUND('',#167,.T.);
#38=FACE_BOUND('',#168,.T.);
#39=FACE_BOUND('',#169,.T.);
#40=FACE_BOUND('',#170,.T.);
#41=FACE_BOUND('',#171,.T.);
#42=FACE_BOUND('',#172,.T.);
#43=FACE_BOUND('',#173,.T.);
#44=FACE_BOUND('',#226,.T.);
#45=FACE_BOUND('',#227,.T.);
#46=FACE_BOUND('',#228,.T.);
#47=FACE_BOUND('',#229,.T.);
#48=FACE_BOUND('',#230,.T.);
#49=FACE_BOUND('',#231,.T.);
#50=FACE_BOUND('',#232,.T.);
#51=FACE_BOUND('',#233,.T.);
#52=FACE_BOUND('',#234,.T.);
#53=CIRCLE('',#1303,1.7);
#54=CIRCLE('',#1304,0.5);
#55=CIRCLE('',#1305,0.499999999999998);
#56=CIRCLE('',#1306,0.499999999999998);
#57=CIRCLE('',#1307,0.499999999999998);
#58=CIRCLE('',#1308,0.5);
#59=CIRCLE('',#1309,0.5);
#60=CIRCLE('',#1310,0.499999999999998);
#61=CIRCLE('',#1311,0.499999999999998);
#62=CIRCLE('',#1312,1.7);
#63=CIRCLE('',#1313,1.7);
#64=CIRCLE('',#1314,0.499999999999998);
#65=CIRCLE('',#1315,0.499999999999998);
#66=CIRCLE('',#1316,0.499999999999998);
#67=CIRCLE('',#1317,0.5);
#68=CIRCLE('',#1318,1.7);
#69=CIRCLE('',#1319,0.5);
#70=CIRCLE('',#1320,0.499999999999998);
#71=CIRCLE('',#1321,0.499999999999998);
#72=CIRCLE('',#1322,0.500000000000003);
#73=CIRCLE('',#1337,0.499999999999998);
#74=CIRCLE('',#1340,0.499999999999998);
#75=CIRCLE('',#1343,0.500000000000003);
#76=CIRCLE('',#1346,0.5);
#77=CIRCLE('',#1348,1.7);
#78=CIRCLE('',#1350,0.499999999999998);
#79=CIRCLE('',#1353,0.499999999999998);
#80=CIRCLE('',#1356,0.499999999999998);
#81=CIRCLE('',#1359,0.5);
#82=CIRCLE('',#1362,1.7);
#83=CIRCLE('',#1364,1.7);
#84=CIRCLE('',#1367,0.5);
#85=CIRCLE('',#1370,0.499999999999998);
#86=CIRCLE('',#1373,0.499999999999998);
#87=CIRCLE('',#1376,0.5);
#88=CIRCLE('',#1379,0.499999999999998);
#89=CIRCLE('',#1382,0.499999999999998);
#90=CIRCLE('',#1385,0.499999999999998);
#91=CIRCLE('',#1388,0.5);
#92=CIRCLE('',#1390,1.7);
#93=FACE_OUTER_BOUND('',#155,.T.);
#94=FACE_OUTER_BOUND('',#156,.T.);
#95=FACE_OUTER_BOUND('',#157,.T.);
#96=FACE_OUTER_BOUND('',#158,.T.);
#97=FACE_OUTER_BOUND('',#159,.T.);
#98=FACE_OUTER_BOUND('',#160,.T.);
#99=FACE_OUTER_BOUND('',#161,.T.);
#100=FACE_OUTER_BOUND('',#162,.T.);
#101=FACE_OUTER_BOUND('',#163,.T.);
#102=FACE_OUTER_BOUND('',#164,.T.);
#103=FACE_OUTER_BOUND('',#174,.T.);
#104=FACE_OUTER_BOUND('',#175,.T.);
#105=FACE_OUTER_BOUND('',#176,.T.);
#106=FACE_OUTER_BOUND('',#177,.T.);
#107=FACE_OUTER_BOUND('',#178,.T.);
#108=FACE_OUTER_BOUND('',#179,.T.);
#109=FACE_OUTER_BOUND('',#180,.T.);
#110=FACE_OUTER_BOUND('',#181,.T.);
#111=FACE_OUTER_BOUND('',#182,.T.);
#112=FACE_OUTER_BOUND('',#183,.T.);
#113=FACE_OUTER_BOUND('',#184,.T.);
#114=FACE_OUTER_BOUND('',#185,.T.);
#115=FACE_OUTER_BOUND('',#186,.T.);
#116=FACE_OUTER_BOUND('',#187,.T.);
#117=FACE_OUTER_BOUND('',#188,.T.);
#118=FACE_OUTER_BOUND('',#189,.T.);
#119=FACE_OUTER_BOUND('',#190,.T.);
#120=FACE_OUTER_BOUND('',#191,.T.);
#121=FACE_OUTER_BOUND('',#192,.T.);
#122=FACE_OUTER_BOUND('',#193,.T.);
#123=FACE_OUTER_BOUND('',#194,.T.);
#124=FACE_OUTER_BOUND('',#195,.T.);
#125=FACE_OUTER_BOUND('',#196,.T.);
#126=FACE_OUTER_BOUND('',#197,.T.);
#127=FACE_OUTER_BOUND('',#198,.T.);
#128=FACE_OUTER_BOUND('',#199,.T.);
#129=FACE_OUTER_BOUND('',#200,.T.);
#130=FACE_OUTER_BOUND('',#201,.T.);
#131=FACE_OUTER_BOUND('',#202,.T.);
#132=FACE_OUTER_BOUND('',#203,.T.);
#133=FACE_OUTER_BOUND('',#204,.T.);
#134=FACE_OUTER_BOUND('',#205,.T.);
#135=FACE_OUTER_BOUND('',#206,.T.);
#136=FACE_OUTER_BOUND('',#207,.T.);
#137=FACE_OUTER_BOUND('',#208,.T.);
#138=FACE_OUTER_BOUND('',#209,.T.);
#139=FACE_OUTER_BOUND('',#210,.T.);
#140=FACE_OUTER_BOUND('',#211,.T.);
#141=FACE_OUTER_BOUND('',#212,.T.);
#142=FACE_OUTER_BOUND('',#213,.T.);
#143=FACE_OUTER_BOUND('',#214,.T.);
#144=FACE_OUTER_BOUND('',#215,.T.);
#145=FACE_OUTER_BOUND('',#216,.T.);
#146=FACE_OUTER_BOUND('',#217,.T.);
#147=FACE_OUTER_BOUND('',#218,.T.);
#148=FACE_OUTER_BOUND('',#219,.T.);
#149=FACE_OUTER_BOUND('',#220,.T.);
#150=FACE_OUTER_BOUND('',#221,.T.);
#151=FACE_OUTER_BOUND('',#222,.T.);
#152=FACE_OUTER_BOUND('',#223,.T.);
#153=FACE_OUTER_BOUND('',#224,.T.);
#154=FACE_OUTER_BOUND('',#225,.T.);
#155=EDGE_LOOP('',(#815,#816,#817,#818));
#156=EDGE_LOOP('',(#819,#820,#821,#822));
#157=EDGE_LOOP('',(#823,#824,#825,#826));
#158=EDGE_LOOP('',(#827,#828,#829,#830));
#159=EDGE_LOOP('',(#831,#832,#833,#834));
#160=EDGE_LOOP('',(#835,#836,#837,#838));
#161=EDGE_LOOP('',(#839,#840,#841,#842));
#162=EDGE_LOOP('',(#843,#844,#845,#846));
#163=EDGE_LOOP('',(#847,#848,#849,#850));
#164=EDGE_LOOP('',(#851,#852,#853,#854,#855,#856,#857,#858,#859,#860,#861,
#862,#863,#864,#865,#866));
#165=EDGE_LOOP('',(#867));
#166=EDGE_LOOP('',(#868,#869,#870,#871,#872,#873,#874,#875));
#167=EDGE_LOOP('',(#876,#877,#878,#879,#880,#881,#882,#883));
#168=EDGE_LOOP('',(#884));
#169=EDGE_LOOP('',(#885));
#170=EDGE_LOOP('',(#886,#887,#888,#889,#890,#891,#892,#893));
#171=EDGE_LOOP('',(#894,#895,#896,#897,#898,#899,#900,#901));
#172=EDGE_LOOP('',(#902));
#173=EDGE_LOOP('',(#903,#904,#905,#906,#907,#908,#909,#910));
#174=EDGE_LOOP('',(#911,#912,#913,#914));
#175=EDGE_LOOP('',(#915,#916,#917,#918));
#176=EDGE_LOOP('',(#919,#920,#921,#922));
#177=EDGE_LOOP('',(#923,#924,#925,#926));
#178=EDGE_LOOP('',(#927,#928,#929,#930));
#179=EDGE_LOOP('',(#931,#932,#933,#934));
#180=EDGE_LOOP('',(#935,#936,#937,#938));
#181=EDGE_LOOP('',(#939,#940,#941,#942));
#182=EDGE_LOOP('',(#943,#944,#945,#946));
#183=EDGE_LOOP('',(#947,#948,#949,#950));
#184=EDGE_LOOP('',(#951,#952,#953,#954));
#185=EDGE_LOOP('',(#955,#956,#957,#958));
#186=EDGE_LOOP('',(#959,#960,#961,#962));
#187=EDGE_LOOP('',(#963,#964,#965,#966));
#188=EDGE_LOOP('',(#967,#968,#969,#970));
#189=EDGE_LOOP('',(#971,#972,#973,#974));
#190=EDGE_LOOP('',(#975,#976,#977,#978));
#191=EDGE_LOOP('',(#979,#980,#981,#982));
#192=EDGE_LOOP('',(#983,#984,#985,#986));
#193=EDGE_LOOP('',(#987,#988,#989,#990));
#194=EDGE_LOOP('',(#991,#992,#993,#994));
#195=EDGE_LOOP('',(#995,#996,#997,#998));
#196=EDGE_LOOP('',(#999,#1000,#1001,#1002));
#197=EDGE_LOOP('',(#1003,#1004,#1005,#1006));
#198=EDGE_LOOP('',(#1007,#1008,#1009,#1010));
#199=EDGE_LOOP('',(#1011,#1012,#1013,#1014));
#200=EDGE_LOOP('',(#1015,#1016,#1017,#1018));
#201=EDGE_LOOP('',(#1019,#1020,#1021,#1022));
#202=EDGE_LOOP('',(#1023,#1024,#1025,#1026));
#203=EDGE_LOOP('',(#1027,#1028,#1029,#1030));
#204=EDGE_LOOP('',(#1031,#1032,#1033,#1034));
#205=EDGE_LOOP('',(#1035,#1036,#1037,#1038));
#206=EDGE_LOOP('',(#1039,#1040,#1041,#1042));
#207=EDGE_LOOP('',(#1043,#1044,#1045,#1046));
#208=EDGE_LOOP('',(#1047,#1048,#1049,#1050));
#209=EDGE_LOOP('',(#1051,#1052,#1053,#1054));
#210=EDGE_LOOP('',(#1055,#1056,#1057,#1058));
#211=EDGE_LOOP('',(#1059,#1060,#1061,#1062));
#212=EDGE_LOOP('',(#1063,#1064,#1065,#1066));
#213=EDGE_LOOP('',(#1067,#1068,#1069,#1070));
#214=EDGE_LOOP('',(#1071,#1072,#1073,#1074));
#215=EDGE_LOOP('',(#1075,#1076,#1077,#1078));
#216=EDGE_LOOP('',(#1079,#1080,#1081,#1082));
#217=EDGE_LOOP('',(#1083,#1084,#1085,#1086));
#218=EDGE_LOOP('',(#1087,#1088,#1089,#1090));
#219=EDGE_LOOP('',(#1091,#1092,#1093,#1094));
#220=EDGE_LOOP('',(#1095,#1096,#1097,#1098));
#221=EDGE_LOOP('',(#1099,#1100,#1101,#1102));
#222=EDGE_LOOP('',(#1103,#1104,#1105,#1106));
#223=EDGE_LOOP('',(#1107,#1108,#1109,#1110));
#224=EDGE_LOOP('',(#1111,#1112,#1113,#1114));
#225=EDGE_LOOP('',(#1115,#1116,#1117,#1118,#1119,#1120,#1121,#1122,#1123,
#1124,#1125,#1126,#1127,#1128,#1129,#1130));
#226=EDGE_LOOP('',(#1131));
#227=EDGE_LOOP('',(#1132,#1133,#1134,#1135,#1136,#1137,#1138,#1139));
#228=EDGE_LOOP('',(#1140,#1141,#1142,#1143,#1144,#1145,#1146,#1147));
#229=EDGE_LOOP('',(#1148));
#230=EDGE_LOOP('',(#1149));
#231=EDGE_LOOP('',(#1150,#1151,#1152,#1153,#1154,#1155,#1156,#1157));
#232=EDGE_LOOP('',(#1158,#1159,#1160,#1161,#1162,#1163,#1164,#1165));
#233=EDGE_LOOP('',(#1166));
#234=EDGE_LOOP('',(#1167,#1168,#1169,#1170,#1171,#1172,#1173,#1174));
#235=LINE('',#1745,#375);
#236=LINE('',#1747,#376);
#237=LINE('',#1749,#377);
#238=LINE('',#1750,#378);
#239=LINE('',#1753,#379);
#240=LINE('',#1755,#380);
#241=LINE('',#1756,#381);
#242=LINE('',#1759,#382);
#243=LINE('',#1761,#383);
#244=LINE('',#1762,#384);
#245=LINE('',#1765,#385);
#246=LINE('',#1767,#386);
#247=LINE('',#1768,#387);
#248=LINE('',#1771,#388);
#249=LINE('',#1773,#389);
#250=LINE('',#1774,#390);
#251=LINE('',#1777,#391);
#252=LINE('',#1779,#392);
#253=LINE('',#1780,#393);
#254=LINE('',#1783,#394);
#255=LINE('',#1785,#395);
#256=LINE('',#1786,#396);
#257=LINE('',#1788,#397);
#258=LINE('',#1789,#398);
#259=LINE('',#1793,#399);
#260=LINE('',#1795,#400);
#261=LINE('',#1797,#401);
#262=LINE('',#1798,#402);
#263=LINE('',#1801,#403);
#264=LINE('',#1803,#404);
#265=LINE('',#1805,#405);
#266=LINE('',#1807,#406);
#267=LINE('',#1809,#407);
#268=LINE('',#1811,#408);
#269=LINE('',#1813,#409);
#270=LINE('',#1815,#410);
#271=LINE('',#1817,#411);
#272=LINE('',#1819,#412);
#273=LINE('',#1821,#413);
#274=LINE('',#1823,#414);
#275=LINE('',#1825,#415);
#276=LINE('',#1827,#416);
#277=LINE('',#1828,#417);
#278=LINE('',#1835,#418);
#279=LINE('',#1839,#419);
#280=LINE('',#1843,#420);
#281=LINE('',#1846,#421);
#282=LINE('',#1851,#422);
#283=LINE('',#1855,#423);
#284=LINE('',#1859,#424);
#285=LINE('',#1862,#425);
#286=LINE('',#1869,#426);
#287=LINE('',#1873,#427);
#288=LINE('',#1877,#428);
#289=LINE('',#1881,#429);
#290=LINE('',#1889,#430);
#291=LINE('',#1893,#431);
#292=LINE('',#1897,#432);
#293=LINE('',#1900,#433);
#294=LINE('',#1903,#434);
#295=LINE('',#1904,#435);
#296=LINE('',#1907,#436);
#297=LINE('',#1908,#437);
#298=LINE('',#1912,#438);
#299=LINE('',#1913,#439);
#300=LINE('',#1914,#440);
#301=LINE('',#1917,#441);
#302=LINE('',#1918,#442);
#303=LINE('',#1921,#443);
#304=LINE('',#1922,#444);
#305=LINE('',#1926,#445);
#306=LINE('',#1927,#446);
#307=LINE('',#1928,#447);
#308=LINE('',#1931,#448);
#309=LINE('',#1932,#449);
#310=LINE('',#1935,#450);
#311=LINE('',#1936,#451);
#312=LINE('',#1939,#452);
#313=LINE('',#1940,#453);
#314=LINE('',#1943,#454);
#315=LINE('',#1944,#455);
#316=LINE('',#1947,#456);
#317=LINE('',#1949,#457);
#318=LINE('',#1950,#458);
#319=LINE('',#1952,#459);
#320=LINE('',#1955,#460);
#321=LINE('',#1957,#461);
#322=LINE('',#1958,#462);
#323=LINE('',#1962,#463);
#324=LINE('',#1965,#464);
#325=LINE('',#1966,#465);
#326=LINE('',#1970,#466);
#327=LINE('',#1973,#467);
#328=LINE('',#1974,#468);
#329=LINE('',#1978,#469);
#330=LINE('',#1981,#470);
#331=LINE('',#1982,#471);
#332=LINE('',#1988,#472);
#333=LINE('',#1991,#473);
#334=LINE('',#1994,#474);
#335=LINE('',#1997,#475);
#336=LINE('',#1998,#476);
#337=LINE('',#2002,#477);
#338=LINE('',#2005,#478);
#339=LINE('',#2006,#479);
#340=LINE('',#2010,#480);
#341=LINE('',#2013,#481);
#342=LINE('',#2014,#482);
#343=LINE('',#2018,#483);
#344=LINE('',#2020,#484);
#345=LINE('',#2024,#485);
#346=LINE('',#2028,#486);
#347=LINE('',#2031,#487);
#348=LINE('',#2033,#488);
#349=LINE('',#2034,#489);
#350=LINE('',#2038,#490);
#351=LINE('',#2041,#491);
#352=LINE('',#2042,#492);
#353=LINE('',#2046,#493);
#354=LINE('',#2049,#494);
#355=LINE('',#2050,#495);
#356=LINE('',#2054,#496);
#357=LINE('',#2057,#497);
#358=LINE('',#2058,#498);
#359=LINE('',#2063,#499);
#360=LINE('',#2065,#500);
#361=LINE('',#2066,#501);
#362=LINE('',#2070,#502);
#363=LINE('',#2073,#503);
#364=LINE('',#2074,#504);
#365=LINE('',#2078,#505);
#366=LINE('',#2081,#506);
#367=LINE('',#2082,#507);
#368=LINE('',#2086,#508);
#369=LINE('',#2089,#509);
#370=LINE('',#2090,#510);
#371=LINE('',#2096,#511);
#372=LINE('',#2098,#512);
#373=LINE('',#2100,#513);
#374=LINE('',#2102,#514);
#375=VECTOR('',#1399,10.);
#376=VECTOR('',#1400,10.);
#377=VECTOR('',#1401,10.);
#378=VECTOR('',#1402,10.);
#379=VECTOR('',#1405,10.);
#380=VECTOR('',#1406,10.);
#381=VECTOR('',#1407,10.);
#382=VECTOR('',#1410,10.);
#383=VECTOR('',#1411,10.);
#384=VECTOR('',#1412,10.);
#385=VECTOR('',#1415,10.);
#386=VECTOR('',#1416,10.);
#387=VECTOR('',#1417,10.);
#388=VECTOR('',#1420,10.);
#389=VECTOR('',#1421,10.);
#390=VECTOR('',#1422,10.);
#391=VECTOR('',#1425,10.);
#392=VECTOR('',#1426,10.);
#393=VECTOR('',#1427,10.);
#394=VECTOR('',#1430,10.);
#395=VECTOR('',#1431,10.);
#396=VECTOR('',#1432,10.);
#397=VECTOR('',#1435,10.);
#398=VECTOR('',#1436,10.);
#399=VECTOR('',#1439,10.);
#400=VECTOR('',#1440,10.);
#401=VECTOR('',#1441,10.);
#402=VECTOR('',#1442,10.);
#403=VECTOR('',#1445,10.);
#404=VECTOR('',#1446,10.);
#405=VECTOR('',#1447,10.);
#406=VECTOR('',#1448,10.);
#407=VECTOR('',#1449,10.);
#408=VECTOR('',#1450,10.);
#409=VECTOR('',#1451,10.);
#410=VECTOR('',#1452,10.);
#411=VECTOR('',#1453,10.);
#412=VECTOR('',#1454,10.);
#413=VECTOR('',#1455,10.);
#414=VECTOR('',#1456,10.);
#415=VECTOR('',#1457,10.);
#416=VECTOR('',#1458,10.);
#417=VECTOR('',#1459,10.);
#418=VECTOR('',#1464,10.);
#419=VECTOR('',#1467,10.);
#420=VECTOR('',#1470,10.);
#421=VECTOR('',#1473,10.);
#422=VECTOR('',#1476,10.);
#423=VECTOR('',#1479,10.);
#424=VECTOR('',#1482,10.);
#425=VECTOR('',#1485,10.);
#426=VECTOR('',#1490,10.);
#427=VECTOR('',#1493,10.);
#428=VECTOR('',#1496,10.);
#429=VECTOR('',#1499,10.);
#430=VECTOR('',#1506,10.);
#431=VECTOR('',#1509,10.);
#432=VECTOR('',#1512,10.);
#433=VECTOR('',#1515,10.);
#434=VECTOR('',#1518,10.);
#435=VECTOR('',#1519,10.);
#436=VECTOR('',#1522,10.);
#437=VECTOR('',#1523,10.);
#438=VECTOR('',#1526,10.);
#439=VECTOR('',#1527,10.);
#440=VECTOR('',#1528,10.);
#441=VECTOR('',#1531,10.);
#442=VECTOR('',#1532,10.);
#443=VECTOR('',#1535,10.);
#444=VECTOR('',#1536,10.);
#445=VECTOR('',#1539,10.);
#446=VECTOR('',#1540,10.);
#447=VECTOR('',#1541,10.);
#448=VECTOR('',#1544,10.);
#449=VECTOR('',#1545,10.);
#450=VECTOR('',#1548,10.);
#451=VECTOR('',#1549,10.);
#452=VECTOR('',#1552,10.);
#453=VECTOR('',#1553,10.);
#454=VECTOR('',#1556,10.);
#455=VECTOR('',#1557,10.);
#456=VECTOR('',#1560,10.);
#457=VECTOR('',#1561,10.);
#458=VECTOR('',#1562,10.);
#459=VECTOR('',#1565,10.);
#460=VECTOR('',#1568,10.);
#461=VECTOR('',#1569,10.);
#462=VECTOR('',#1570,10.);
#463=VECTOR('',#1575,10.);
#464=VECTOR('',#1578,10.);
#465=VECTOR('',#1579,10.);
#466=VECTOR('',#1584,10.);
#467=VECTOR('',#1587,10.);
#468=VECTOR('',#1588,10.);
#469=VECTOR('',#1593,10.);
#470=VECTOR('',#1596,10.);
#471=VECTOR('',#1597,10.);
#472=VECTOR('',#1606,1.7);
#473=VECTOR('',#1609,10.);
#474=VECTOR('',#1612,10.);
#475=VECTOR('',#1615,10.);
#476=VECTOR('',#1616,10.);
#477=VECTOR('',#1621,10.);
#478=VECTOR('',#1624,10.);
#479=VECTOR('',#1625,10.);
#480=VECTOR('',#1630,10.);
#481=VECTOR('',#1633,10.);
#482=VECTOR('',#1634,10.);
#483=VECTOR('',#1639,10.);
#484=VECTOR('',#1642,10.);
#485=VECTOR('',#1647,1.7);
#486=VECTOR('',#1652,1.7);
#487=VECTOR('',#1655,10.);
#488=VECTOR('',#1656,10.);
#489=VECTOR('',#1657,10.);
#490=VECTOR('',#1662,10.);
#491=VECTOR('',#1665,10.);
#492=VECTOR('',#1666,10.);
#493=VECTOR('',#1671,10.);
#494=VECTOR('',#1674,10.);
#495=VECTOR('',#1675,10.);
#496=VECTOR('',#1680,10.);
#497=VECTOR('',#1683,10.);
#498=VECTOR('',#1684,10.);
#499=VECTOR('',#1691,10.);
#500=VECTOR('',#1692,10.);
#501=VECTOR('',#1693,10.);
#502=VECTOR('',#1698,10.);
#503=VECTOR('',#1701,10.);
#504=VECTOR('',#1702,10.);
#505=VECTOR('',#1707,10.);
#506=VECTOR('',#1710,10.);
#507=VECTOR('',#1711,10.);
#508=VECTOR('',#1716,10.);
#509=VECTOR('',#1719,10.);
#510=VECTOR('',#1720,10.);
#511=VECTOR('',#1729,1.7);
#512=VECTOR('',#1732,10.);
#513=VECTOR('',#1735,10.);
#514=VECTOR('',#1738,10.);
#515=VERTEX_POINT('',#1743);
#516=VERTEX_POINT('',#1744);
#517=VERTEX_POINT('',#1746);
#518=VERTEX_POINT('',#1748);
#519=VERTEX_POINT('',#1752);
#520=VERTEX_POINT('',#1754);
#521=VERTEX_POINT('',#1758);
#522=VERTEX_POINT('',#1760);
#523=VERTEX_POINT('',#1764);
#524=VERTEX_POINT('',#1766);
#525=VERTEX_POINT('',#1770);
#526=VERTEX_POINT('',#1772);
#527=VERTEX_POINT('',#1776);
#528=VERTEX_POINT('',#1778);
#529=VERTEX_POINT('',#1782);
#530=VERTEX_POINT('',#1784);
#531=VERTEX_POINT('',#1791);
#532=VERTEX_POINT('',#1792);
#533=VERTEX_POINT('',#1794);
#534=VERTEX_POINT('',#1796);
#535=VERTEX_POINT('',#1800);
#536=VERTEX_POINT('',#1802);
#537=VERTEX_POINT('',#1804);
#538=VERTEX_POINT('',#1806);
#539=VERTEX_POINT('',#1808);
#540=VERTEX_POINT('',#1810);
#541=VERTEX_POINT('',#1812);
#542=VERTEX_POINT('',#1814);
#543=VERTEX_POINT('',#1816);
#544=VERTEX_POINT('',#1818);
#545=VERTEX_POINT('',#1820);
#546=VERTEX_POINT('',#1822);
#547=VERTEX_POINT('',#1824);
#548=VERTEX_POINT('',#1826);
#549=VERTEX_POINT('',#1829);
#550=VERTEX_POINT('',#1831);
#551=VERTEX_POINT('',#1832);
#552=VERTEX_POINT('',#1834);
#553=VERTEX_POINT('',#1836);
#554=VERTEX_POINT('',#1838);
#555=VERTEX_POINT('',#1840);
#556=VERTEX_POINT('',#1842);
#557=VERTEX_POINT('',#1844);
#558=VERTEX_POINT('',#1847);
#559=VERTEX_POINT('',#1848);
#560=VERTEX_POINT('',#1850);
#561=VERTEX_POINT('',#1852);
#562=VERTEX_POINT('',#1854);
#563=VERTEX_POINT('',#1856);
#564=VERTEX_POINT('',#1858);
#565=VERTEX_POINT('',#1860);
#566=VERTEX_POINT('',#1863);
#567=VERTEX_POINT('',#1865);
#568=VERTEX_POINT('',#1867);
#569=VERTEX_POINT('',#1868);
#570=VERTEX_POINT('',#1870);
#571=VERTEX_POINT('',#1872);
#572=VERTEX_POINT('',#1874);
#573=VERTEX_POINT('',#1876);
#574=VERTEX_POINT('',#1878);
#575=VERTEX_POINT('',#1880);
#576=VERTEX_POINT('',#1883);
#577=VERTEX_POINT('',#1885);
#578=VERTEX_POINT('',#1886);
#579=VERTEX_POINT('',#1888);
#580=VERTEX_POINT('',#1890);
#581=VERTEX_POINT('',#1892);
#582=VERTEX_POINT('',#1894);
#583=VERTEX_POINT('',#1896);
#584=VERTEX_POINT('',#1898);
#585=VERTEX_POINT('',#1902);
#586=VERTEX_POINT('',#1906);
#587=VERTEX_POINT('',#1910);
#588=VERTEX_POINT('',#1911);
#589=VERTEX_POINT('',#1916);
#590=VERTEX_POINT('',#1920);
#591=VERTEX_POINT('',#1924);
#592=VERTEX_POINT('',#1925);
#593=VERTEX_POINT('',#1930);
#594=VERTEX_POINT('',#1934);
#595=VERTEX_POINT('',#1938);
#596=VERTEX_POINT('',#1942);
#597=VERTEX_POINT('',#1946);
#598=VERTEX_POINT('',#1948);
#599=VERTEX_POINT('',#1954);
#600=VERTEX_POINT('',#1956);
#601=VERTEX_POINT('',#1960);
#602=VERTEX_POINT('',#1964);
#603=VERTEX_POINT('',#1968);
#604=VERTEX_POINT('',#1972);
#605=VERTEX_POINT('',#1976);
#606=VERTEX_POINT('',#1980);
#607=VERTEX_POINT('',#1986);
#608=VERTEX_POINT('',#1990);
#609=VERTEX_POINT('',#1992);
#610=VERTEX_POINT('',#1996);
#611=VERTEX_POINT('',#2000);
#612=VERTEX_POINT('',#2004);
#613=VERTEX_POINT('',#2008);
#614=VERTEX_POINT('',#2012);
#615=VERTEX_POINT('',#2016);
#616=VERTEX_POINT('',#2022);
#617=VERTEX_POINT('',#2026);
#618=VERTEX_POINT('',#2030);
#619=VERTEX_POINT('',#2032);
#620=VERTEX_POINT('',#2036);
#621=VERTEX_POINT('',#2040);
#622=VERTEX_POINT('',#2044);
#623=VERTEX_POINT('',#2048);
#624=VERTEX_POINT('',#2052);
#625=VERTEX_POINT('',#2056);
#626=VERTEX_POINT('',#2062);
#627=VERTEX_POINT('',#2064);
#628=VERTEX_POINT('',#2068);
#629=VERTEX_POINT('',#2072);
#630=VERTEX_POINT('',#2076);
#631=VERTEX_POINT('',#2080);
#632=VERTEX_POINT('',#2084);
#633=VERTEX_POINT('',#2088);
#634=VERTEX_POINT('',#2094);
#635=EDGE_CURVE('',#515,#516,#235,.T.);
#636=EDGE_CURVE('',#516,#517,#236,.T.);
#637=EDGE_CURVE('',#517,#518,#237,.T.);
#638=EDGE_CURVE('',#518,#515,#238,.T.);
#639=EDGE_CURVE('',#516,#519,#239,.T.);
#640=EDGE_CURVE('',#520,#519,#240,.T.);
#641=EDGE_CURVE('',#517,#520,#241,.T.);
#642=EDGE_CURVE('',#519,#521,#242,.T.);
#643=EDGE_CURVE('',#521,#522,#243,.T.);
#644=EDGE_CURVE('',#522,#520,#244,.T.);
#645=EDGE_CURVE('',#521,#523,#245,.T.);
#646=EDGE_CURVE('',#524,#523,#246,.T.);
#647=EDGE_CURVE('',#522,#524,#247,.T.);
#648=EDGE_CURVE('',#523,#525,#248,.T.);
#649=EDGE_CURVE('',#525,#526,#249,.T.);
#650=EDGE_CURVE('',#526,#524,#250,.T.);
#651=EDGE_CURVE('',#525,#527,#251,.T.);
#652=EDGE_CURVE('',#528,#527,#252,.T.);
#653=EDGE_CURVE('',#526,#528,#253,.T.);
#654=EDGE_CURVE('',#527,#529,#254,.T.);
#655=EDGE_CURVE('',#529,#530,#255,.T.);
#656=EDGE_CURVE('',#530,#528,#256,.T.);
#657=EDGE_CURVE('',#530,#518,#257,.T.);
#658=EDGE_CURVE('',#529,#515,#258,.T.);
#659=EDGE_CURVE('',#531,#532,#259,.T.);
#660=EDGE_CURVE('',#532,#533,#260,.T.);
#661=EDGE_CURVE('',#533,#534,#261,.T.);
#662=EDGE_CURVE('',#534,#531,#262,.T.);
#663=EDGE_CURVE('',#535,#533,#263,.T.);
#664=EDGE_CURVE('',#536,#535,#264,.T.);
#665=EDGE_CURVE('',#537,#536,#265,.T.);
#666=EDGE_CURVE('',#538,#537,#266,.T.);
#667=EDGE_CURVE('',#538,#539,#267,.T.);
#668=EDGE_CURVE('',#540,#539,#268,.T.);
#669=EDGE_CURVE('',#540,#541,#269,.T.);
#670=EDGE_CURVE('',#542,#541,#270,.T.);
#671=EDGE_CURVE('',#542,#543,#271,.T.);
#672=EDGE_CURVE('',#544,#543,#272,.T.);
#673=EDGE_CURVE('',#545,#544,#273,.T.);
#674=EDGE_CURVE('',#546,#545,#274,.T.);
#675=EDGE_CURVE('',#547,#546,#275,.T.);
#676=EDGE_CURVE('',#548,#547,#276,.T.);
#677=EDGE_CURVE('',#534,#548,#277,.T.);
#678=EDGE_CURVE('',#549,#549,#53,.T.);
#679=EDGE_CURVE('',#550,#551,#54,.T.);
#680=EDGE_CURVE('',#552,#550,#278,.T.);
#681=EDGE_CURVE('',#553,#552,#55,.T.);
#682=EDGE_CURVE('',#554,#553,#279,.T.);
#683=EDGE_CURVE('',#555,#554,#56,.T.);
#684=EDGE_CURVE('',#556,#555,#280,.T.);
#685=EDGE_CURVE('',#557,#556,#57,.T.);
#686=EDGE_CURVE('',#551,#557,#281,.T.);
#687=EDGE_CURVE('',#558,#559,#58,.T.);
#688=EDGE_CURVE('',#560,#558,#282,.T.);
#689=EDGE_CURVE('',#561,#560,#59,.T.);
#690=EDGE_CURVE('',#562,#561,#283,.T.);
#691=EDGE_CURVE('',#563,#562,#60,.T.);
#692=EDGE_CURVE('',#564,#563,#284,.T.);
#693=EDGE_CURVE('',#565,#564,#61,.T.);
#694=EDGE_CURVE('',#559,#565,#285,.T.);
#695=EDGE_CURVE('',#566,#566,#62,.T.);
#696=EDGE_CURVE('',#567,#567,#63,.T.);
#697=EDGE_CURVE('',#568,#569,#286,.T.);
#698=EDGE_CURVE('',#570,#568,#64,.T.);
#699=EDGE_CURVE('',#571,#570,#287,.T.);
#700=EDGE_CURVE('',#572,#571,#65,.T.);
#701=EDGE_CURVE('',#573,#572,#288,.T.);
#702=EDGE_CURVE('',#574,#573,#66,.T.);
#703=EDGE_CURVE('',#575,#574,#289,.T.);
#704=EDGE_CURVE('',#569,#575,#67,.T.);
#705=EDGE_CURVE('',#576,#576,#68,.T.);
#706=EDGE_CURVE('',#577,#578,#69,.T.);
#707=EDGE_CURVE('',#579,#577,#290,.T.);
#708=EDGE_CURVE('',#580,#579,#70,.T.);
#709=EDGE_CURVE('',#581,#580,#291,.T.);
#710=EDGE_CURVE('',#582,#581,#71,.T.);
#711=EDGE_CURVE('',#583,#582,#292,.T.);
#712=EDGE_CURVE('',#584,#583,#72,.T.);
#713=EDGE_CURVE('',#578,#584,#293,.T.);
#714=EDGE_CURVE('',#585,#532,#294,.T.);
#715=EDGE_CURVE('',#535,#585,#295,.T.);
#716=EDGE_CURVE('',#585,#586,#296,.T.);
#717=EDGE_CURVE('',#586,#536,#297,.T.);
#718=EDGE_CURVE('',#587,#588,#298,.T.);
#719=EDGE_CURVE('',#588,#538,#299,.T.);
#720=EDGE_CURVE('',#537,#587,#300,.T.);
#721=EDGE_CURVE('',#589,#588,#301,.T.);
#722=EDGE_CURVE('',#539,#589,#302,.T.);
#723=EDGE_CURVE('',#589,#590,#303,.T.);
#724=EDGE_CURVE('',#590,#540,#304,.T.);
#725=EDGE_CURVE('',#591,#592,#305,.T.);
#726=EDGE_CURVE('',#592,#548,#306,.T.);
#727=EDGE_CURVE('',#547,#591,#307,.T.);
#728=EDGE_CURVE('',#593,#546,#308,.T.);
#729=EDGE_CURVE('',#591,#593,#309,.T.);
#730=EDGE_CURVE('',#594,#593,#310,.T.);
#731=EDGE_CURVE('',#545,#594,#311,.T.);
#732=EDGE_CURVE('',#595,#544,#312,.T.);
#733=EDGE_CURVE('',#594,#595,#313,.T.);
#734=EDGE_CURVE('',#596,#595,#314,.T.);
#735=EDGE_CURVE('',#543,#596,#315,.T.);
#736=EDGE_CURVE('',#541,#597,#316,.T.);
#737=EDGE_CURVE('',#597,#598,#317,.T.);
#738=EDGE_CURVE('',#598,#542,#318,.T.);
#739=EDGE_CURVE('',#597,#590,#319,.T.);
#740=EDGE_CURVE('',#577,#599,#320,.T.);
#741=EDGE_CURVE('',#600,#599,#321,.T.);
#742=EDGE_CURVE('',#579,#600,#322,.T.);
#743=EDGE_CURVE('',#601,#600,#73,.T.);
#744=EDGE_CURVE('',#580,#601,#323,.T.);
#745=EDGE_CURVE('',#602,#601,#324,.T.);
#746=EDGE_CURVE('',#581,#602,#325,.T.);
#747=EDGE_CURVE('',#603,#602,#74,.T.);
#748=EDGE_CURVE('',#582,#603,#326,.T.);
#749=EDGE_CURVE('',#604,#603,#327,.T.);
#750=EDGE_CURVE('',#583,#604,#328,.T.);
#751=EDGE_CURVE('',#605,#604,#75,.T.);
#752=EDGE_CURVE('',#584,#605,#329,.T.);
#753=EDGE_CURVE('',#606,#605,#330,.T.);
#754=EDGE_CURVE('',#578,#606,#331,.T.);
#755=EDGE_CURVE('',#599,#606,#76,.T.);
#756=EDGE_CURVE('',#607,#607,#77,.T.);
#757=EDGE_CURVE('',#607,#576,#332,.T.);
#758=EDGE_CURVE('',#568,#608,#333,.T.);
#759=EDGE_CURVE('',#609,#608,#78,.T.);
#760=EDGE_CURVE('',#570,#609,#334,.T.);
#761=EDGE_CURVE('',#610,#609,#335,.T.);
#762=EDGE_CURVE('',#571,#610,#336,.T.);
#763=EDGE_CURVE('',#611,#610,#79,.T.);
#764=EDGE_CURVE('',#572,#611,#337,.T.);
#765=EDGE_CURVE('',#612,#611,#338,.T.);
#766=EDGE_CURVE('',#573,#612,#339,.T.);
#767=EDGE_CURVE('',#613,#612,#80,.T.);
#768=EDGE_CURVE('',#574,#613,#340,.T.);
#769=EDGE_CURVE('',#614,#613,#341,.T.);
#770=EDGE_CURVE('',#575,#614,#342,.T.);
#771=EDGE_CURVE('',#615,#614,#81,.T.);
#772=EDGE_CURVE('',#569,#615,#343,.T.);
#773=EDGE_CURVE('',#608,#615,#344,.T.);
#774=EDGE_CURVE('',#616,#616,#82,.T.);
#775=EDGE_CURVE('',#616,#567,#345,.T.);
#776=EDGE_CURVE('',#617,#617,#83,.T.);
#777=EDGE_CURVE('',#617,#566,#346,.T.);
#778=EDGE_CURVE('',#558,#618,#347,.T.);
#779=EDGE_CURVE('',#619,#618,#348,.T.);
#780=EDGE_CURVE('',#560,#619,#349,.T.);
#781=EDGE_CURVE('',#620,#619,#84,.T.);
#782=EDGE_CURVE('',#561,#620,#350,.T.);
#783=EDGE_CURVE('',#621,#620,#351,.T.);
#784=EDGE_CURVE('',#562,#621,#352,.T.);
#785=EDGE_CURVE('',#622,#621,#85,.T.);
#786=EDGE_CURVE('',#563,#622,#353,.T.);
#787=EDGE_CURVE('',#623,#622,#354,.T.);
#788=EDGE_CURVE('',#564,#623,#355,.T.);
#789=EDGE_CURVE('',#624,#623,#86,.T.);
#790=EDGE_CURVE('',#565,#624,#356,.T.);
#791=EDGE_CURVE('',#625,#624,#357,.T.);
#792=EDGE_CURVE('',#559,#625,#358,.T.);
#793=EDGE_CURVE('',#618,#625,#87,.T.);
#794=EDGE_CURVE('',#550,#626,#359,.T.);
#795=EDGE_CURVE('',#627,#626,#360,.T.);
#796=EDGE_CURVE('',#552,#627,#361,.T.);
#797=EDGE_CURVE('',#628,#627,#88,.T.);
#798=EDGE_CURVE('',#553,#628,#362,.T.);
#799=EDGE_CURVE('',#629,#628,#363,.T.);
#800=EDGE_CURVE('',#554,#629,#364,.T.);
#801=EDGE_CURVE('',#630,#629,#89,.T.);
#802=EDGE_CURVE('',#555,#630,#365,.T.);
#803=EDGE_CURVE('',#631,#630,#366,.T.);
#804=EDGE_CURVE('',#556,#631,#367,.T.);
#805=EDGE_CURVE('',#632,#631,#90,.T.);
#806=EDGE_CURVE('',#557,#632,#368,.T.);
#807=EDGE_CURVE('',#633,#632,#369,.T.);
#808=EDGE_CURVE('',#551,#633,#370,.T.);
#809=EDGE_CURVE('',#626,#633,#91,.T.);
#810=EDGE_CURVE('',#634,#634,#92,.T.);
#811=EDGE_CURVE('',#634,#549,#371,.T.);
#812=EDGE_CURVE('',#596,#598,#372,.T.);
#813=EDGE_CURVE('',#531,#592,#373,.T.);
#814=EDGE_CURVE('',#587,#586,#374,.T.);
#815=ORIENTED_EDGE('',*,*,#635,.T.);
#816=ORIENTED_EDGE('',*,*,#636,.T.);
#817=ORIENTED_EDGE('',*,*,#637,.T.);
#818=ORIENTED_EDGE('',*,*,#638,.T.);
#819=ORIENTED_EDGE('',*,*,#636,.F.);
#820=ORIENTED_EDGE('',*,*,#639,.T.);
#821=ORIENTED_EDGE('',*,*,#640,.F.);
#822=ORIENTED_EDGE('',*,*,#641,.F.);
#823=ORIENTED_EDGE('',*,*,#642,.T.);
#824=ORIENTED_EDGE('',*,*,#643,.T.);
#825=ORIENTED_EDGE('',*,*,#644,.T.);
#826=ORIENTED_EDGE('',*,*,#640,.T.);
#827=ORIENTED_EDGE('',*,*,#643,.F.);
#828=ORIENTED_EDGE('',*,*,#645,.T.);
#829=ORIENTED_EDGE('',*,*,#646,.F.);
#830=ORIENTED_EDGE('',*,*,#647,.F.);
#831=ORIENTED_EDGE('',*,*,#648,.T.);
#832=ORIENTED_EDGE('',*,*,#649,.T.);
#833=ORIENTED_EDGE('',*,*,#650,.T.);
#834=ORIENTED_EDGE('',*,*,#646,.T.);
#835=ORIENTED_EDGE('',*,*,#649,.F.);
#836=ORIENTED_EDGE('',*,*,#651,.T.);
#837=ORIENTED_EDGE('',*,*,#652,.F.);
#838=ORIENTED_EDGE('',*,*,#653,.F.);
#839=ORIENTED_EDGE('',*,*,#654,.T.);
#840=ORIENTED_EDGE('',*,*,#655,.T.);
#841=ORIENTED_EDGE('',*,*,#656,.T.);
#842=ORIENTED_EDGE('',*,*,#652,.T.);
#843=ORIENTED_EDGE('',*,*,#638,.F.);
#844=ORIENTED_EDGE('',*,*,#657,.F.);
#845=ORIENTED_EDGE('',*,*,#655,.F.);
#846=ORIENTED_EDGE('',*,*,#658,.T.);
#847=ORIENTED_EDGE('',*,*,#659,.T.);
#848=ORIENTED_EDGE('',*,*,#660,.T.);
#849=ORIENTED_EDGE('',*,*,#661,.T.);
#850=ORIENTED_EDGE('',*,*,#662,.T.);
#851=ORIENTED_EDGE('',*,*,#661,.F.);
#852=ORIENTED_EDGE('',*,*,#663,.F.);
#853=ORIENTED_EDGE('',*,*,#664,.F.);
#854=ORIENTED_EDGE('',*,*,#665,.F.);
#855=ORIENTED_EDGE('',*,*,#666,.F.);
#856=ORIENTED_EDGE('',*,*,#667,.T.);
#857=ORIENTED_EDGE('',*,*,#668,.F.);
#858=ORIENTED_EDGE('',*,*,#669,.T.);
#859=ORIENTED_EDGE('',*,*,#670,.F.);
#860=ORIENTED_EDGE('',*,*,#671,.T.);
#861=ORIENTED_EDGE('',*,*,#672,.F.);
#862=ORIENTED_EDGE('',*,*,#673,.F.);
#863=ORIENTED_EDGE('',*,*,#674,.F.);
#864=ORIENTED_EDGE('',*,*,#675,.F.);
#865=ORIENTED_EDGE('',*,*,#676,.F.);
#866=ORIENTED_EDGE('',*,*,#677,.F.);
#867=ORIENTED_EDGE('',*,*,#678,.F.);
#868=ORIENTED_EDGE('',*,*,#679,.F.);
#869=ORIENTED_EDGE('',*,*,#680,.F.);
#870=ORIENTED_EDGE('',*,*,#681,.F.);
#871=ORIENTED_EDGE('',*,*,#682,.F.);
#872=ORIENTED_EDGE('',*,*,#683,.F.);
#873=ORIENTED_EDGE('',*,*,#684,.F.);
#874=ORIENTED_EDGE('',*,*,#685,.F.);
#875=ORIENTED_EDGE('',*,*,#686,.F.);
#876=ORIENTED_EDGE('',*,*,#687,.F.);
#877=ORIENTED_EDGE('',*,*,#688,.F.);
#878=ORIENTED_EDGE('',*,*,#689,.F.);
#879=ORIENTED_EDGE('',*,*,#690,.F.);
#880=ORIENTED_EDGE('',*,*,#691,.F.);
#881=ORIENTED_EDGE('',*,*,#692,.F.);
#882=ORIENTED_EDGE('',*,*,#693,.F.);
#883=ORIENTED_EDGE('',*,*,#694,.F.);
#884=ORIENTED_EDGE('',*,*,#695,.F.);
#885=ORIENTED_EDGE('',*,*,#696,.F.);
#886=ORIENTED_EDGE('',*,*,#697,.F.);
#887=ORIENTED_EDGE('',*,*,#698,.F.);
#888=ORIENTED_EDGE('',*,*,#699,.F.);
#889=ORIENTED_EDGE('',*,*,#700,.F.);
#890=ORIENTED_EDGE('',*,*,#701,.F.);
#891=ORIENTED_EDGE('',*,*,#702,.F.);
#892=ORIENTED_EDGE('',*,*,#703,.F.);
#893=ORIENTED_EDGE('',*,*,#704,.F.);
#894=ORIENTED_EDGE('',*,*,#635,.F.);
#895=ORIENTED_EDGE('',*,*,#658,.F.);
#896=ORIENTED_EDGE('',*,*,#654,.F.);
#897=ORIENTED_EDGE('',*,*,#651,.F.);
#898=ORIENTED_EDGE('',*,*,#648,.F.);
#899=ORIENTED_EDGE('',*,*,#645,.F.);
#900=ORIENTED_EDGE('',*,*,#642,.F.);
#901=ORIENTED_EDGE('',*,*,#639,.F.);
#902=ORIENTED_EDGE('',*,*,#705,.F.);
#903=ORIENTED_EDGE('',*,*,#706,.F.);
#904=ORIENTED_EDGE('',*,*,#707,.F.);
#905=ORIENTED_EDGE('',*,*,#708,.F.);
#906=ORIENTED_EDGE('',*,*,#709,.F.);
#907=ORIENTED_EDGE('',*,*,#710,.F.);
#908=ORIENTED_EDGE('',*,*,#711,.F.);
#909=ORIENTED_EDGE('',*,*,#712,.F.);
#910=ORIENTED_EDGE('',*,*,#713,.F.);
#911=ORIENTED_EDGE('',*,*,#660,.F.);
#912=ORIENTED_EDGE('',*,*,#714,.F.);
#913=ORIENTED_EDGE('',*,*,#715,.F.);
#914=ORIENTED_EDGE('',*,*,#663,.T.);
#915=ORIENTED_EDGE('',*,*,#716,.T.);
#916=ORIENTED_EDGE('',*,*,#717,.T.);
#917=ORIENTED_EDGE('',*,*,#664,.T.);
#918=ORIENTED_EDGE('',*,*,#715,.T.);
#919=ORIENTED_EDGE('',*,*,#718,.T.);
#920=ORIENTED_EDGE('',*,*,#719,.T.);
#921=ORIENTED_EDGE('',*,*,#666,.T.);
#922=ORIENTED_EDGE('',*,*,#720,.T.);
#923=ORIENTED_EDGE('',*,*,#719,.F.);
#924=ORIENTED_EDGE('',*,*,#721,.F.);
#925=ORIENTED_EDGE('',*,*,#722,.F.);
#926=ORIENTED_EDGE('',*,*,#667,.F.);
#927=ORIENTED_EDGE('',*,*,#668,.T.);
#928=ORIENTED_EDGE('',*,*,#722,.T.);
#929=ORIENTED_EDGE('',*,*,#723,.T.);
#930=ORIENTED_EDGE('',*,*,#724,.T.);
#931=ORIENTED_EDGE('',*,*,#725,.T.);
#932=ORIENTED_EDGE('',*,*,#726,.T.);
#933=ORIENTED_EDGE('',*,*,#676,.T.);
#934=ORIENTED_EDGE('',*,*,#727,.T.);
#935=ORIENTED_EDGE('',*,*,#727,.F.);
#936=ORIENTED_EDGE('',*,*,#675,.T.);
#937=ORIENTED_EDGE('',*,*,#728,.F.);
#938=ORIENTED_EDGE('',*,*,#729,.F.);
#939=ORIENTED_EDGE('',*,*,#730,.T.);
#940=ORIENTED_EDGE('',*,*,#728,.T.);
#941=ORIENTED_EDGE('',*,*,#674,.T.);
#942=ORIENTED_EDGE('',*,*,#731,.T.);
#943=ORIENTED_EDGE('',*,*,#731,.F.);
#944=ORIENTED_EDGE('',*,*,#673,.T.);
#945=ORIENTED_EDGE('',*,*,#732,.F.);
#946=ORIENTED_EDGE('',*,*,#733,.F.);
#947=ORIENTED_EDGE('',*,*,#734,.T.);
#948=ORIENTED_EDGE('',*,*,#732,.T.);
#949=ORIENTED_EDGE('',*,*,#672,.T.);
#950=ORIENTED_EDGE('',*,*,#735,.T.);
#951=ORIENTED_EDGE('',*,*,#670,.T.);
#952=ORIENTED_EDGE('',*,*,#736,.T.);
#953=ORIENTED_EDGE('',*,*,#737,.T.);
#954=ORIENTED_EDGE('',*,*,#738,.T.);
#955=ORIENTED_EDGE('',*,*,#724,.F.);
#956=ORIENTED_EDGE('',*,*,#739,.F.);
#957=ORIENTED_EDGE('',*,*,#736,.F.);
#958=ORIENTED_EDGE('',*,*,#669,.F.);
#959=ORIENTED_EDGE('',*,*,#707,.T.);
#960=ORIENTED_EDGE('',*,*,#740,.T.);
#961=ORIENTED_EDGE('',*,*,#741,.F.);
#962=ORIENTED_EDGE('',*,*,#742,.F.);
#963=ORIENTED_EDGE('',*,*,#708,.T.);
#964=ORIENTED_EDGE('',*,*,#742,.T.);
#965=ORIENTED_EDGE('',*,*,#743,.F.);
#966=ORIENTED_EDGE('',*,*,#744,.F.);
#967=ORIENTED_EDGE('',*,*,#709,.T.);
#968=ORIENTED_EDGE('',*,*,#744,.T.);
#969=ORIENTED_EDGE('',*,*,#745,.F.);
#970=ORIENTED_EDGE('',*,*,#746,.F.);
#971=ORIENTED_EDGE('',*,*,#710,.T.);
#972=ORIENTED_EDGE('',*,*,#746,.T.);
#973=ORIENTED_EDGE('',*,*,#747,.F.);
#974=ORIENTED_EDGE('',*,*,#748,.F.);
#975=ORIENTED_EDGE('',*,*,#711,.T.);
#976=ORIENTED_EDGE('',*,*,#748,.T.);
#977=ORIENTED_EDGE('',*,*,#749,.F.);
#978=ORIENTED_EDGE('',*,*,#750,.F.);
#979=ORIENTED_EDGE('',*,*,#712,.T.);
#980=ORIENTED_EDGE('',*,*,#750,.T.);
#981=ORIENTED_EDGE('',*,*,#751,.F.);
#982=ORIENTED_EDGE('',*,*,#752,.F.);
#983=ORIENTED_EDGE('',*,*,#713,.T.);
#984=ORIENTED_EDGE('',*,*,#752,.T.);
#985=ORIENTED_EDGE('',*,*,#753,.F.);
#986=ORIENTED_EDGE('',*,*,#754,.F.);
#987=ORIENTED_EDGE('',*,*,#706,.T.);
#988=ORIENTED_EDGE('',*,*,#754,.T.);
#989=ORIENTED_EDGE('',*,*,#755,.F.);
#990=ORIENTED_EDGE('',*,*,#740,.F.);
#991=ORIENTED_EDGE('',*,*,#756,.F.);
#992=ORIENTED_EDGE('',*,*,#757,.T.);
#993=ORIENTED_EDGE('',*,*,#705,.T.);
#994=ORIENTED_EDGE('',*,*,#757,.F.);
#995=ORIENTED_EDGE('',*,*,#698,.T.);
#996=ORIENTED_EDGE('',*,*,#758,.T.);
#997=ORIENTED_EDGE('',*,*,#759,.F.);
#998=ORIENTED_EDGE('',*,*,#760,.F.);
#999=ORIENTED_EDGE('',*,*,#699,.T.);
#1000=ORIENTED_EDGE('',*,*,#760,.T.);
#1001=ORIENTED_EDGE('',*,*,#761,.F.);
#1002=ORIENTED_EDGE('',*,*,#762,.F.);
#1003=ORIENTED_EDGE('',*,*,#700,.T.);
#1004=ORIENTED_EDGE('',*,*,#762,.T.);
#1005=ORIENTED_EDGE('',*,*,#763,.F.);
#1006=ORIENTED_EDGE('',*,*,#764,.F.);
#1007=ORIENTED_EDGE('',*,*,#701,.T.);
#1008=ORIENTED_EDGE('',*,*,#764,.T.);
#1009=ORIENTED_EDGE('',*,*,#765,.F.);
#1010=ORIENTED_EDGE('',*,*,#766,.F.);
#1011=ORIENTED_EDGE('',*,*,#702,.T.);
#1012=ORIENTED_EDGE('',*,*,#766,.T.);
#1013=ORIENTED_EDGE('',*,*,#767,.F.);
#1014=ORIENTED_EDGE('',*,*,#768,.F.);
#1015=ORIENTED_EDGE('',*,*,#703,.T.);
#1016=ORIENTED_EDGE('',*,*,#768,.T.);
#1017=ORIENTED_EDGE('',*,*,#769,.F.);
#1018=ORIENTED_EDGE('',*,*,#770,.F.);
#1019=ORIENTED_EDGE('',*,*,#704,.T.);
#1020=ORIENTED_EDGE('',*,*,#770,.T.);
#1021=ORIENTED_EDGE('',*,*,#771,.F.);
#1022=ORIENTED_EDGE('',*,*,#772,.F.);
#1023=ORIENTED_EDGE('',*,*,#697,.T.);
#1024=ORIENTED_EDGE('',*,*,#772,.T.);
#1025=ORIENTED_EDGE('',*,*,#773,.F.);
#1026=ORIENTED_EDGE('',*,*,#758,.F.);
#1027=ORIENTED_EDGE('',*,*,#774,.F.);
#1028=ORIENTED_EDGE('',*,*,#775,.T.);
#1029=ORIENTED_EDGE('',*,*,#696,.T.);
#1030=ORIENTED_EDGE('',*,*,#775,.F.);
#1031=ORIENTED_EDGE('',*,*,#776,.F.);
#1032=ORIENTED_EDGE('',*,*,#777,.T.);
#1033=ORIENTED_EDGE('',*,*,#695,.T.);
#1034=ORIENTED_EDGE('',*,*,#777,.F.);
#1035=ORIENTED_EDGE('',*,*,#688,.T.);
#1036=ORIENTED_EDGE('',*,*,#778,.T.);
#1037=ORIENTED_EDGE('',*,*,#779,.F.);
#1038=ORIENTED_EDGE('',*,*,#780,.F.);
#1039=ORIENTED_EDGE('',*,*,#689,.T.);
#1040=ORIENTED_EDGE('',*,*,#780,.T.);
#1041=ORIENTED_EDGE('',*,*,#781,.F.);
#1042=ORIENTED_EDGE('',*,*,#782,.F.);
#1043=ORIENTED_EDGE('',*,*,#690,.T.);
#1044=ORIENTED_EDGE('',*,*,#782,.T.);
#1045=ORIENTED_EDGE('',*,*,#783,.F.);
#1046=ORIENTED_EDGE('',*,*,#784,.F.);
#1047=ORIENTED_EDGE('',*,*,#691,.T.);
#1048=ORIENTED_EDGE('',*,*,#784,.T.);
#1049=ORIENTED_EDGE('',*,*,#785,.F.);
#1050=ORIENTED_EDGE('',*,*,#786,.F.);
#1051=ORIENTED_EDGE('',*,*,#692,.T.);
#1052=ORIENTED_EDGE('',*,*,#786,.T.);
#1053=ORIENTED_EDGE('',*,*,#787,.F.);
#1054=ORIENTED_EDGE('',*,*,#788,.F.);
#1055=ORIENTED_EDGE('',*,*,#693,.T.);
#1056=ORIENTED_EDGE('',*,*,#788,.T.);
#1057=ORIENTED_EDGE('',*,*,#789,.F.);
#1058=ORIENTED_EDGE('',*,*,#790,.F.);
#1059=ORIENTED_EDGE('',*,*,#694,.T.);
#1060=ORIENTED_EDGE('',*,*,#790,.T.);
#1061=ORIENTED_EDGE('',*,*,#791,.F.);
#1062=ORIENTED_EDGE('',*,*,#792,.F.);
#1063=ORIENTED_EDGE('',*,*,#687,.T.);
#1064=ORIENTED_EDGE('',*,*,#792,.T.);
#1065=ORIENTED_EDGE('',*,*,#793,.F.);
#1066=ORIENTED_EDGE('',*,*,#778,.F.);
#1067=ORIENTED_EDGE('',*,*,#680,.T.);
#1068=ORIENTED_EDGE('',*,*,#794,.T.);
#1069=ORIENTED_EDGE('',*,*,#795,.F.);
#1070=ORIENTED_EDGE('',*,*,#796,.F.);
#1071=ORIENTED_EDGE('',*,*,#681,.T.);
#1072=ORIENTED_EDGE('',*,*,#796,.T.);
#1073=ORIENTED_EDGE('',*,*,#797,.F.);
#1074=ORIENTED_EDGE('',*,*,#798,.F.);
#1075=ORIENTED_EDGE('',*,*,#682,.T.);
#1076=ORIENTED_EDGE('',*,*,#798,.T.);
#1077=ORIENTED_EDGE('',*,*,#799,.F.);
#1078=ORIENTED_EDGE('',*,*,#800,.F.);
#1079=ORIENTED_EDGE('',*,*,#683,.T.);
#1080=ORIENTED_EDGE('',*,*,#800,.T.);
#1081=ORIENTED_EDGE('',*,*,#801,.F.);
#1082=ORIENTED_EDGE('',*,*,#802,.F.);
#1083=ORIENTED_EDGE('',*,*,#684,.T.);
#1084=ORIENTED_EDGE('',*,*,#802,.T.);
#1085=ORIENTED_EDGE('',*,*,#803,.F.);
#1086=ORIENTED_EDGE('',*,*,#804,.F.);
#1087=ORIENTED_EDGE('',*,*,#685,.T.);
#1088=ORIENTED_EDGE('',*,*,#804,.T.);
#1089=ORIENTED_EDGE('',*,*,#805,.F.);
#1090=ORIENTED_EDGE('',*,*,#806,.F.);
#1091=ORIENTED_EDGE('',*,*,#686,.T.);
#1092=ORIENTED_EDGE('',*,*,#806,.T.);
#1093=ORIENTED_EDGE('',*,*,#807,.F.);
#1094=ORIENTED_EDGE('',*,*,#808,.F.);
#1095=ORIENTED_EDGE('',*,*,#679,.T.);
#1096=ORIENTED_EDGE('',*,*,#808,.T.);
#1097=ORIENTED_EDGE('',*,*,#809,.F.);
#1098=ORIENTED_EDGE('',*,*,#794,.F.);
#1099=ORIENTED_EDGE('',*,*,#810,.F.);
#1100=ORIENTED_EDGE('',*,*,#811,.T.);
#1101=ORIENTED_EDGE('',*,*,#678,.T.);
#1102=ORIENTED_EDGE('',*,*,#811,.F.);
#1103=ORIENTED_EDGE('',*,*,#735,.F.);
#1104=ORIENTED_EDGE('',*,*,#671,.F.);
#1105=ORIENTED_EDGE('',*,*,#738,.F.);
#1106=ORIENTED_EDGE('',*,*,#812,.F.);
#1107=ORIENTED_EDGE('',*,*,#662,.F.);
#1108=ORIENTED_EDGE('',*,*,#677,.T.);
#1109=ORIENTED_EDGE('',*,*,#726,.F.);
#1110=ORIENTED_EDGE('',*,*,#813,.F.);
#1111=ORIENTED_EDGE('',*,*,#717,.F.);
#1112=ORIENTED_EDGE('',*,*,#814,.F.);
#1113=ORIENTED_EDGE('',*,*,#720,.F.);
#1114=ORIENTED_EDGE('',*,*,#665,.T.);
#1115=ORIENTED_EDGE('',*,*,#659,.F.);
#1116=ORIENTED_EDGE('',*,*,#813,.T.);
#1117=ORIENTED_EDGE('',*,*,#725,.F.);
#1118=ORIENTED_EDGE('',*,*,#729,.T.);
#1119=ORIENTED_EDGE('',*,*,#730,.F.);
#1120=ORIENTED_EDGE('',*,*,#733,.T.);
#1121=ORIENTED_EDGE('',*,*,#734,.F.);
#1122=ORIENTED_EDGE('',*,*,#812,.T.);
#1123=ORIENTED_EDGE('',*,*,#737,.F.);
#1124=ORIENTED_EDGE('',*,*,#739,.T.);
#1125=ORIENTED_EDGE('',*,*,#723,.F.);
#1126=ORIENTED_EDGE('',*,*,#721,.T.);
#1127=ORIENTED_EDGE('',*,*,#718,.F.);
#1128=ORIENTED_EDGE('',*,*,#814,.T.);
#1129=ORIENTED_EDGE('',*,*,#716,.F.);
#1130=ORIENTED_EDGE('',*,*,#714,.T.);
#1131=ORIENTED_EDGE('',*,*,#810,.T.);
#1132=ORIENTED_EDGE('',*,*,#809,.T.);
#1133=ORIENTED_EDGE('',*,*,#807,.T.);
#1134=ORIENTED_EDGE('',*,*,#805,.T.);
#1135=ORIENTED_EDGE('',*,*,#803,.T.);
#1136=ORIENTED_EDGE('',*,*,#801,.T.);
#1137=ORIENTED_EDGE('',*,*,#799,.T.);
#1138=ORIENTED_EDGE('',*,*,#797,.T.);
#1139=ORIENTED_EDGE('',*,*,#795,.T.);
#1140=ORIENTED_EDGE('',*,*,#793,.T.);
#1141=ORIENTED_EDGE('',*,*,#791,.T.);
#1142=ORIENTED_EDGE('',*,*,#789,.T.);
#1143=ORIENTED_EDGE('',*,*,#787,.T.);
#1144=ORIENTED_EDGE('',*,*,#785,.T.);
#1145=ORIENTED_EDGE('',*,*,#783,.T.);
#1146=ORIENTED_EDGE('',*,*,#781,.T.);
#1147=ORIENTED_EDGE('',*,*,#779,.T.);
#1148=ORIENTED_EDGE('',*,*,#776,.T.);
#1149=ORIENTED_EDGE('',*,*,#774,.T.);
#1150=ORIENTED_EDGE('',*,*,#773,.T.);
#1151=ORIENTED_EDGE('',*,*,#771,.T.);
#1152=ORIENTED_EDGE('',*,*,#769,.T.);
#1153=ORIENTED_EDGE('',*,*,#767,.T.);
#1154=ORIENTED_EDGE('',*,*,#765,.T.);
#1155=ORIENTED_EDGE('',*,*,#763,.T.);
#1156=ORIENTED_EDGE('',*,*,#761,.T.);
#1157=ORIENTED_EDGE('',*,*,#759,.T.);
#1158=ORIENTED_EDGE('',*,*,#641,.T.);
#1159=ORIENTED_EDGE('',*,*,#644,.F.);
#1160=ORIENTED_EDGE('',*,*,#647,.T.);
#1161=ORIENTED_EDGE('',*,*,#650,.F.);
#1162=ORIENTED_EDGE('',*,*,#653,.T.);
#1163=ORIENTED_EDGE('',*,*,#656,.F.);
#1164=ORIENTED_EDGE('',*,*,#657,.T.);
#1165=ORIENTED_EDGE('',*,*,#637,.F.);
#1166=ORIENTED_EDGE('',*,*,#756,.T.);
#1167=ORIENTED_EDGE('',*,*,#755,.T.);
#1168=ORIENTED_EDGE('',*,*,#753,.T.);
#1169=ORIENTED_EDGE('',*,*,#751,.T.);
#1170=ORIENTED_EDGE('',*,*,#749,.T.);
#1171=ORIENTED_EDGE('',*,*,#747,.T.);
#1172=ORIENTED_EDGE('',*,*,#745,.T.);
#1173=ORIENTED_EDGE('',*,*,#743,.T.);
#1174=ORIENTED_EDGE('',*,*,#741,.T.);
#1175=PLANE('',#1293);
#1176=PLANE('',#1294);
#1177=PLANE('',#1295);
#1178=PLANE('',#1296);
#1179=PLANE('',#1297);
#1180=PLANE('',#1298);
#1181=PLANE('',#1299);
#1182=PLANE('',#1300);
#1183=PLANE('',#1301);
#1184=PLANE('',#1302);
#1185=PLANE('',#1323);
#1186=PLANE('',#1324);
#1187=PLANE('',#1325);
#1188=PLANE('',#1326);
#1189=PLANE('',#1327);
#1190=PLANE('',#1328);
#1191=PLANE('',#1329);
#1192=PLANE('',#1330);
#1193=PLANE('',#1331);
#1194=PLANE('',#1332);
#1195=PLANE('',#1333);
#1196=PLANE('',#1334);
#1197=PLANE('',#1335);
#1198=PLANE('',#1338);
#1199=PLANE('',#1341);
#1200=PLANE('',#1344);
#1201=PLANE('',#1351);
#1202=PLANE('',#1354);
#1203=PLANE('',#1357);
#1204=PLANE('',#1360);
#1205=PLANE('',#1365);
#1206=PLANE('',#1368);
#1207=PLANE('',#1371);
#1208=PLANE('',#1374);
#1209=PLANE('',#1377);
#1210=PLANE('',#1380);
#1211=PLANE('',#1383);
#1212=PLANE('',#1386);
#1213=PLANE('',#1391);
#1214=PLANE('',#1392);
#1215=PLANE('',#1393);
#1216=PLANE('',#1394);
#1217=ADVANCED_FACE('',(#93),#1175,.T.);
#1218=ADVANCED_FACE('',(#94),#1176,.T.);
#1219=ADVANCED_FACE('',(#95),#1177,.T.);
#1220=ADVANCED_FACE('',(#96),#1178,.T.);
#1221=ADVANCED_FACE('',(#97),#1179,.T.);
#1222=ADVANCED_FACE('',(#98),#1180,.T.);
#1223=ADVANCED_FACE('',(#99),#1181,.T.);
#1224=ADVANCED_FACE('',(#100),#1182,.T.);
#1225=ADVANCED_FACE('',(#101),#1183,.T.);
#1226=ADVANCED_FACE('',(#102,#35,#36,#37,#38,#39,#40,#41,#42,#43),#1184,
 .F.);
#1227=ADVANCED_FACE('',(#103),#1185,.T.);
#1228=ADVANCED_FACE('',(#104),#1186,.T.);
#1229=ADVANCED_FACE('',(#105),#1187,.T.);
#1230=ADVANCED_FACE('',(#106),#1188,.T.);
#1231=ADVANCED_FACE('',(#107),#1189,.T.);
#1232=ADVANCED_FACE('',(#108),#1190,.T.);
#1233=ADVANCED_FACE('',(#109),#1191,.T.);
#1234=ADVANCED_FACE('',(#110),#1192,.T.);
#1235=ADVANCED_FACE('',(#111),#1193,.T.);
#1236=ADVANCED_FACE('',(#112),#1194,.T.);
#1237=ADVANCED_FACE('',(#113),#1195,.T.);
#1238=ADVANCED_FACE('',(#114),#1196,.T.);
#1239=ADVANCED_FACE('',(#115),#1197,.T.);
#1240=ADVANCED_FACE('',(#116),#15,.F.);
#1241=ADVANCED_FACE('',(#117),#1198,.T.);
#1242=ADVANCED_FACE('',(#118),#16,.F.);
#1243=ADVANCED_FACE('',(#119),#1199,.T.);
#1244=ADVANCED_FACE('',(#120),#17,.F.);
#1245=ADVANCED_FACE('',(#121),#1200,.T.);
#1246=ADVANCED_FACE('',(#122),#18,.F.);
#1247=ADVANCED_FACE('',(#123),#19,.F.);
#1248=ADVANCED_FACE('',(#124),#20,.F.);
#1249=ADVANCED_FACE('',(#125),#1201,.T.);
#1250=ADVANCED_FACE('',(#126),#21,.F.);
#1251=ADVANCED_FACE('',(#127),#1202,.T.);
#1252=ADVANCED_FACE('',(#128),#22,.F.);
#1253=ADVANCED_FACE('',(#129),#1203,.T.);
#1254=ADVANCED_FACE('',(#130),#23,.F.);
#1255=ADVANCED_FACE('',(#131),#1204,.T.);
#1256=ADVANCED_FACE('',(#132),#24,.F.);
#1257=ADVANCED_FACE('',(#133),#25,.F.);
#1258=ADVANCED_FACE('',(#134),#1205,.T.);
#1259=ADVANCED_FACE('',(#135),#26,.F.);
#1260=ADVANCED_FACE('',(#136),#1206,.T.);
#1261=ADVANCED_FACE('',(#137),#27,.F.);
#1262=ADVANCED_FACE('',(#138),#1207,.T.);
#1263=ADVANCED_FACE('',(#139),#28,.F.);
#1264=ADVANCED_FACE('',(#140),#1208,.T.);
#1265=ADVANCED_FACE('',(#141),#29,.F.);
#1266=ADVANCED_FACE('',(#142),#1209,.T.);
#1267=ADVANCED_FACE('',(#143),#30,.F.);
#1268=ADVANCED_FACE('',(#144),#1210,.T.);
#1269=ADVANCED_FACE('',(#145),#31,.F.);
#1270=ADVANCED_FACE('',(#146),#1211,.T.);
#1271=ADVANCED_FACE('',(#147),#32,.F.);
#1272=ADVANCED_FACE('',(#148),#1212,.T.);
#1273=ADVANCED_FACE('',(#149),#33,.F.);
#1274=ADVANCED_FACE('',(#150),#34,.F.);
#1275=ADVANCED_FACE('',(#151),#1213,.T.);
#1276=ADVANCED_FACE('',(#152),#1214,.T.);
#1277=ADVANCED_FACE('',(#153),#1215,.T.);
#1278=ADVANCED_FACE('',(#154,#44,#45,#46,#47,#48,#49,#50,#51,#52),#1216,
 .T.);
#1279=CLOSED_SHELL('',(#1217,#1218,#1219,#1220,#1221,#1222,#1223,#1224,
#1225,#1226,#1227,#1228,#1229,#1230,#1231,#1232,#1233,#1234,#1235,#1236,
#1237,#1238,#1239,#1240,#1241,#1242,#1243,#1244,#1245,#1246,#1247,#1248,
#1249,#1250,#1251,#1252,#1253,#1254,#1255,#1256,#1257,#1258,#1259,#1260,
#1261,#1262,#1263,#1264,#1265,#1266,#1267,#1268,#1269,#1270,#1271,#1272,
#1273,#1274,#1275,#1276,#1277,#1278));
#1280=DERIVED_UNIT_ELEMENT(#1282,1.);
#1281=DERIVED_UNIT_ELEMENT(#2109,-3.);
#1282=(
MASS_UNIT()
NAMED_UNIT(*)
SI_UNIT(.KILO.,.GRAM.)
);
#1283=DERIVED_UNIT((#1280,#1281));
#1284=MEASURE_REPRESENTATION_ITEM('density measure',
POSITIVE_RATIO_MEASURE(7850.),#1283);
#1285=PROPERTY_DEFINITION_REPRESENTATION(#1290,#1287);
#1286=PROPERTY_DEFINITION_REPRESENTATION(#1291,#1288);
#1287=REPRESENTATION('material name',(#1289),#2106);
#1288=REPRESENTATION('density',(#1284),#2106);
#1289=DESCRIPTIVE_REPRESENTATION_ITEM('Steel','Steel');
#1290=PROPERTY_DEFINITION('material property','material name',#2116);
#1291=PROPERTY_DEFINITION('material property','density of part',#2116);
#1292=AXIS2_PLACEMENT_3D('',#1741,#1395,#1396);
#1293=AXIS2_PLACEMENT_3D('',#1742,#1397,#1398);
#1294=AXIS2_PLACEMENT_3D('',#1751,#1403,#1404);
#1295=AXIS2_PLACEMENT_3D('',#1757,#1408,#1409);
#1296=AXIS2_PLACEMENT_3D('',#1763,#1413,#1414);
#1297=AXIS2_PLACEMENT_3D('',#1769,#1418,#1419);
#1298=AXIS2_PLACEMENT_3D('',#1775,#1423,#1424);
#1299=AXIS2_PLACEMENT_3D('',#1781,#1428,#1429);
#1300=AXIS2_PLACEMENT_3D('',#1787,#1433,#1434);
#1301=AXIS2_PLACEMENT_3D('',#1790,#1437,#1438);
#1302=AXIS2_PLACEMENT_3D('',#1799,#1443,#1444);
#1303=AXIS2_PLACEMENT_3D('',#1830,#1460,#1461);
#1304=AXIS2_PLACEMENT_3D('',#1833,#1462,#1463);
#1305=AXIS2_PLACEMENT_3D('',#1837,#1465,#1466);
#1306=AXIS2_PLACEMENT_3D('',#1841,#1468,#1469);
#1307=AXIS2_PLACEMENT_3D('',#1845,#1471,#1472);
#1308=AXIS2_PLACEMENT_3D('',#1849,#1474,#1475);
#1309=AXIS2_PLACEMENT_3D('',#1853,#1477,#1478);
#1310=AXIS2_PLACEMENT_3D('',#1857,#1480,#1481);
#1311=AXIS2_PLACEMENT_3D('',#1861,#1483,#1484);
#1312=AXIS2_PLACEMENT_3D('',#1864,#1486,#1487);
#1313=AXIS2_PLACEMENT_3D('',#1866,#1488,#1489);
#1314=AXIS2_PLACEMENT_3D('',#1871,#1491,#1492);
#1315=AXIS2_PLACEMENT_3D('',#1875,#1494,#1495);
#1316=AXIS2_PLACEMENT_3D('',#1879,#1497,#1498);
#1317=AXIS2_PLACEMENT_3D('',#1882,#1500,#1501);
#1318=AXIS2_PLACEMENT_3D('',#1884,#1502,#1503);
#1319=AXIS2_PLACEMENT_3D('',#1887,#1504,#1505);
#1320=AXIS2_PLACEMENT_3D('',#1891,#1507,#1508);
#1321=AXIS2_PLACEMENT_3D('',#1895,#1510,#1511);
#1322=AXIS2_PLACEMENT_3D('',#1899,#1513,#1514);
#1323=AXIS2_PLACEMENT_3D('',#1901,#1516,#1517);
#1324=AXIS2_PLACEMENT_3D('',#1905,#1520,#1521);
#1325=AXIS2_PLACEMENT_3D('',#1909,#1524,#1525);
#1326=AXIS2_PLACEMENT_3D('',#1915,#1529,#1530);
#1327=AXIS2_PLACEMENT_3D('',#1919,#1533,#1534);
#1328=AXIS2_PLACEMENT_3D('',#1923,#1537,#1538);
#1329=AXIS2_PLACEMENT_3D('',#1929,#1542,#1543);
#1330=AXIS2_PLACEMENT_3D('',#1933,#1546,#1547);
#1331=AXIS2_PLACEMENT_3D('',#1937,#1550,#1551);
#1332=AXIS2_PLACEMENT_3D('',#1941,#1554,#1555);
#1333=AXIS2_PLACEMENT_3D('',#1945,#1558,#1559);
#1334=AXIS2_PLACEMENT_3D('',#1951,#1563,#1564);
#1335=AXIS2_PLACEMENT_3D('',#1953,#1566,#1567);
#1336=AXIS2_PLACEMENT_3D('',#1959,#1571,#1572);
#1337=AXIS2_PLACEMENT_3D('',#1961,#1573,#1574);
#1338=AXIS2_PLACEMENT_3D('',#1963,#1576,#1577);
#1339=AXIS2_PLACEMENT_3D('',#1967,#1580,#1581);
#1340=AXIS2_PLACEMENT_3D('',#1969,#1582,#1583);
#1341=AXIS2_PLACEMENT_3D('',#1971,#1585,#1586);
#1342=AXIS2_PLACEMENT_3D('',#1975,#1589,#1590);
#1343=AXIS2_PLACEMENT_3D('',#1977,#1591,#1592);
#1344=AXIS2_PLACEMENT_3D('',#1979,#1594,#1595);
#1345=AXIS2_PLACEMENT_3D('',#1983,#1598,#1599);
#1346=AXIS2_PLACEMENT_3D('',#1984,#1600,#1601);
#1347=AXIS2_PLACEMENT_3D('',#1985,#1602,#1603);
#1348=AXIS2_PLACEMENT_3D('',#1987,#1604,#1605);
#1349=AXIS2_PLACEMENT_3D('',#1989,#1607,#1608);
#1350=AXIS2_PLACEMENT_3D('',#1993,#1610,#1611);
#1351=AXIS2_PLACEMENT_3D('',#1995,#1613,#1614);
#1352=AXIS2_PLACEMENT_3D('',#1999,#1617,#1618);
#1353=AXIS2_PLACEMENT_3D('',#2001,#1619,#1620);
#1354=AXIS2_PLACEMENT_3D('',#2003,#1622,#1623);
#1355=AXIS2_PLACEMENT_3D('',#2007,#1626,#1627);
#1356=AXIS2_PLACEMENT_3D('',#2009,#1628,#1629);
#1357=AXIS2_PLACEMENT_3D('',#2011,#1631,#1632);
#1358=AXIS2_PLACEMENT_3D('',#2015,#1635,#1636);
#1359=AXIS2_PLACEMENT_3D('',#2017,#1637,#1638);
#1360=AXIS2_PLACEMENT_3D('',#2019,#1640,#1641);
#1361=AXIS2_PLACEMENT_3D('',#2021,#1643,#1644);
#1362=AXIS2_PLACEMENT_3D('',#2023,#1645,#1646);
#1363=AXIS2_PLACEMENT_3D('',#2025,#1648,#1649);
#1364=AXIS2_PLACEMENT_3D('',#2027,#1650,#1651);
#1365=AXIS2_PLACEMENT_3D('',#2029,#1653,#1654);
#1366=AXIS2_PLACEMENT_3D('',#2035,#1658,#1659);
#1367=AXIS2_PLACEMENT_3D('',#2037,#1660,#1661);
#1368=AXIS2_PLACEMENT_3D('',#2039,#1663,#1664);
#1369=AXIS2_PLACEMENT_3D('',#2043,#1667,#1668);
#1370=AXIS2_PLACEMENT_3D('',#2045,#1669,#1670);
#1371=AXIS2_PLACEMENT_3D('',#2047,#1672,#1673);
#1372=AXIS2_PLACEMENT_3D('',#2051,#1676,#1677);
#1373=AXIS2_PLACEMENT_3D('',#2053,#1678,#1679);
#1374=AXIS2_PLACEMENT_3D('',#2055,#1681,#1682);
#1375=AXIS2_PLACEMENT_3D('',#2059,#1685,#1686);
#1376=AXIS2_PLACEMENT_3D('',#2060,#1687,#1688);
#1377=AXIS2_PLACEMENT_3D('',#2061,#1689,#1690);
#1378=AXIS2_PLACEMENT_3D('',#2067,#1694,#1695);
#1379=AXIS2_PLACEMENT_3D('',#2069,#1696,#1697);
#1380=AXIS2_PLACEMENT_3D('',#2071,#1699,#1700);
#1381=AXIS2_PLACEMENT_3D('',#2075,#1703,#1704);
#1382=AXIS2_PLACEMENT_3D('',#2077,#1705,#1706);
#1383=AXIS2_PLACEMENT_3D('',#2079,#1708,#1709);
#1384=AXIS2_PLACEMENT_3D('',#2083,#1712,#1713);
#1385=AXIS2_PLACEMENT_3D('',#2085,#1714,#1715);
#1386=AXIS2_PLACEMENT_3D('',#2087,#1717,#1718);
#1387=AXIS2_PLACEMENT_3D('',#2091,#1721,#1722);
#1388=AXIS2_PLACEMENT_3D('',#2092,#1723,#1724);
#1389=AXIS2_PLACEMENT_3D('',#2093,#1725,#1726);
#1390=AXIS2_PLACEMENT_3D('',#2095,#1727,#1728);
#1391=AXIS2_PLACEMENT_3D('',#2097,#1730,#1731);
#1392=AXIS2_PLACEMENT_3D('',#2099,#1733,#1734);
#1393=AXIS2_PLACEMENT_3D('',#2101,#1736,#1737);
#1394=AXIS2_PLACEMENT_3D('',#2103,#1739,#1740);
#1395=DIRECTION('axis',(0.,0.,1.));
#1396=DIRECTION('refdir',(1.,0.,0.));
#1397=DIRECTION('center_axis',(-0.707106781186549,0.707106781186546,0.));
#1398=DIRECTION('ref_axis',(0.,0.,1.));
#1399=DIRECTION('',(-0.707106781186546,-0.707106781186549,0.));
#1400=DIRECTION('',(0.,0.,1.));
#1401=DIRECTION('',(0.707106781186546,0.707106781186549,0.));
#1402=DIRECTION('',(0.,0.,-1.));
#1403=DIRECTION('center_axis',(0.,1.,0.));
#1404=DIRECTION('ref_axis',(-1.,0.,0.));
#1405=DIRECTION('',(-1.,0.,0.));
#1406=DIRECTION('',(0.,0.,-1.));
#1407=DIRECTION('',(-1.,0.,0.));
#1408=DIRECTION('center_axis',(0.707106781186546,0.707106781186549,0.));
#1409=DIRECTION('ref_axis',(0.,0.,-1.));
#1410=DIRECTION('',(-0.707106781186549,0.707106781186546,0.));
#1411=DIRECTION('',(0.,0.,1.));
#1412=DIRECTION('',(0.707106781186549,-0.707106781186546,0.));
#1413=DIRECTION('center_axis',(1.,0.,0.));
#1414=DIRECTION('ref_axis',(0.,1.,0.));
#1415=DIRECTION('',(0.,1.,0.));
#1416=DIRECTION('',(0.,0.,-1.));
#1417=DIRECTION('',(0.,1.,0.));
#1418=DIRECTION('center_axis',(0.707106781186548,-0.707106781186548,0.));
#1419=DIRECTION('ref_axis',(0.,0.,-1.));
#1420=DIRECTION('',(0.707106781186548,0.707106781186548,0.));
#1421=DIRECTION('',(0.,0.,1.));
#1422=DIRECTION('',(-0.707106781186548,-0.707106781186548,0.));
#1423=DIRECTION('center_axis',(0.,-1.,0.));
#1424=DIRECTION('ref_axis',(1.,0.,0.));
#1425=DIRECTION('',(1.,0.,0.));
#1426=DIRECTION('',(0.,0.,-1.));
#1427=DIRECTION('',(1.,0.,0.));
#1428=DIRECTION('center_axis',(-0.707106781186548,-0.707106781186548,0.));
#1429=DIRECTION('ref_axis',(0.,0.,1.));
#1430=DIRECTION('',(0.707106781186548,-0.707106781186548,0.));
#1431=DIRECTION('',(0.,0.,1.));
#1432=DIRECTION('',(-0.707106781186548,0.707106781186548,0.));
#1433=DIRECTION('center_axis',(-1.,0.,0.));
#1434=DIRECTION('ref_axis',(0.,-1.,0.));
#1435=DIRECTION('',(0.,-1.,0.));
#1436=DIRECTION('',(0.,-1.,0.));
#1437=DIRECTION('center_axis',(-0.707106781186549,-0.707106781186546,0.));
#1438=DIRECTION('ref_axis',(0.,0.,1.));
#1439=DIRECTION('',(-0.707106781186546,0.707106781186549,0.));
#1440=DIRECTION('',(0.,0.,-1.));
#1441=DIRECTION('',(0.707106781186546,-0.707106781186549,0.));
#1442=DIRECTION('',(0.,0.,1.));
#1443=DIRECTION('center_axis',(0.,0.,1.));
#1444=DIRECTION('ref_axis',(1.,0.,0.));
#1445=DIRECTION('',(1.34076809929975E-16,-1.,0.));
#1446=DIRECTION('',(-0.707106781186548,-0.707106781186547,0.));
#1447=DIRECTION('',(-1.,0.,0.));
#1448=DIRECTION('',(-0.707106781186548,0.707106781186548,0.));
#1449=DIRECTION('',(0.,-1.,0.));
#1450=DIRECTION('',(-0.707106781186546,0.707106781186549,0.));
#1451=DIRECTION('',(1.,0.,0.));
#1452=DIRECTION('',(-0.707106781186552,-0.707106781186543,0.));
#1453=DIRECTION('',(0.,1.,0.));
#1454=DIRECTION('',(-0.707106781186548,-0.707106781186548,0.));
#1455=DIRECTION('',(-1.,0.,0.));
#1456=DIRECTION('',(-0.707106781186554,0.707106781186541,0.));
#1457=DIRECTION('',(0.,1.,0.));
#1458=DIRECTION('',(0.707106781186546,0.707106781186549,0.));
#1459=DIRECTION('',(1.,0.,0.));
#1460=DIRECTION('center_axis',(0.,0.,-1.));
#1461=DIRECTION('ref_axis',(1.,0.,0.));
#1462=DIRECTION('center_axis',(0.,0.,-1.));
#1463=DIRECTION('ref_axis',(0.,1.,0.));
#1464=DIRECTION('',(0.,1.,0.));
#1465=DIRECTION('center_axis',(0.,0.,-1.));
#1466=DIRECTION('ref_axis',(-1.,0.,0.));
#1467=DIRECTION('',(-1.,0.,0.));
#1468=DIRECTION('center_axis',(0.,0.,-1.));
#1469=DIRECTION('ref_axis',(0.,-1.,0.));
#1470=DIRECTION('',(0.,-1.,0.));
#1471=DIRECTION('center_axis',(0.,0.,-1.));
#1472=DIRECTION('ref_axis',(1.,0.,0.));
#1473=DIRECTION('',(1.,0.,0.));
#1474=DIRECTION('center_axis',(0.,0.,-1.));
#1475=DIRECTION('ref_axis',(0.,1.,0.));
#1476=DIRECTION('',(0.,1.,0.));
#1477=DIRECTION('center_axis',(0.,0.,-1.));
#1478=DIRECTION('ref_axis',(-1.,0.,0.));
#1479=DIRECTION('',(-1.,0.,0.));
#1480=DIRECTION('center_axis',(0.,0.,-1.));
#1481=DIRECTION('ref_axis',(0.,-1.,0.));
#1482=DIRECTION('',(0.,-1.,0.));
#1483=DIRECTION('center_axis',(0.,0.,-1.));
#1484=DIRECTION('ref_axis',(1.,0.,0.));
#1485=DIRECTION('',(1.,0.,0.));
#1486=DIRECTION('center_axis',(0.,0.,-1.));
#1487=DIRECTION('ref_axis',(1.,0.,0.));
#1488=DIRECTION('center_axis',(0.,0.,-1.));
#1489=DIRECTION('ref_axis',(1.,0.,0.));
#1490=DIRECTION('',(0.,1.,0.));
#1491=DIRECTION('center_axis',(0.,0.,-1.));
#1492=DIRECTION('ref_axis',(-1.,0.,0.));
#1493=DIRECTION('',(-1.,0.,0.));
#1494=DIRECTION('center_axis',(0.,0.,-1.));
#1495=DIRECTION('ref_axis',(0.,-1.,0.));
#1496=DIRECTION('',(0.,-1.,0.));
#1497=DIRECTION('center_axis',(0.,0.,-1.));
#1498=DIRECTION('ref_axis',(1.,0.,0.));
#1499=DIRECTION('',(1.,0.,0.));
#1500=DIRECTION('center_axis',(0.,0.,-1.));
#1501=DIRECTION('ref_axis',(0.,1.,0.));
#1502=DIRECTION('center_axis',(0.,0.,-1.));
#1503=DIRECTION('ref_axis',(1.,0.,0.));
#1504=DIRECTION('center_axis',(0.,0.,-1.));
#1505=DIRECTION('ref_axis',(0.,1.,0.));
#1506=DIRECTION('',(0.,1.,0.));
#1507=DIRECTION('center_axis',(0.,0.,-1.));
#1508=DIRECTION('ref_axis',(-1.,0.,0.));
#1509=DIRECTION('',(-1.,0.,0.));
#1510=DIRECTION('center_axis',(0.,0.,-1.));
#1511=DIRECTION('ref_axis',(0.,-1.,0.));
#1512=DIRECTION('',(0.,-1.,0.));
#1513=DIRECTION('center_axis',(0.,0.,-1.));
#1514=DIRECTION('ref_axis',(1.,0.,0.));
#1515=DIRECTION('',(1.,0.,0.));
#1516=DIRECTION('center_axis',(-1.,-1.34076809929975E-16,0.));
#1517=DIRECTION('ref_axis',(1.34076809929975E-16,-1.,0.));
#1518=DIRECTION('',(1.34076809929975E-16,-1.,0.));
#1519=DIRECTION('',(0.,0.,1.));
#1520=DIRECTION('center_axis',(-0.707106781186547,0.707106781186548,0.));
#1521=DIRECTION('ref_axis',(0.,0.,1.));
#1522=DIRECTION('',(0.707106781186548,0.707106781186547,0.));
#1523=DIRECTION('',(0.,0.,-1.));
#1524=DIRECTION('center_axis',(0.707106781186548,0.707106781186548,0.));
#1525=DIRECTION('ref_axis',(0.,0.,-1.));
#1526=DIRECTION('',(0.707106781186548,-0.707106781186548,0.));
#1527=DIRECTION('',(0.,0.,-1.));
#1528=DIRECTION('',(0.,0.,1.));
#1529=DIRECTION('center_axis',(1.,0.,0.));
#1530=DIRECTION('ref_axis',(0.,1.,0.));
#1531=DIRECTION('',(0.,1.,0.));
#1532=DIRECTION('',(0.,0.,1.));
#1533=DIRECTION('center_axis',(0.707106781186549,0.707106781186546,0.));
#1534=DIRECTION('ref_axis',(0.,0.,-1.));
#1535=DIRECTION('',(0.707106781186546,-0.707106781186549,0.));
#1536=DIRECTION('',(0.,0.,-1.));
#1537=DIRECTION('center_axis',(0.707106781186549,-0.707106781186546,0.));
#1538=DIRECTION('ref_axis',(0.,0.,-1.));
#1539=DIRECTION('',(-0.707106781186546,-0.707106781186549,0.));
#1540=DIRECTION('',(0.,0.,-1.));
#1541=DIRECTION('',(0.,0.,1.));
#1542=DIRECTION('center_axis',(1.,0.,0.));
#1543=DIRECTION('ref_axis',(0.,1.,0.));
#1544=DIRECTION('',(0.,0.,-1.));
#1545=DIRECTION('',(0.,1.,0.));
#1546=DIRECTION('center_axis',(0.707106781186541,0.707106781186554,0.));
#1547=DIRECTION('ref_axis',(0.,0.,-1.));
#1548=DIRECTION('',(0.707106781186554,-0.707106781186541,0.));
#1549=DIRECTION('',(0.,0.,1.));
#1550=DIRECTION('center_axis',(0.,1.,0.));
#1551=DIRECTION('ref_axis',(-1.,0.,0.));
#1552=DIRECTION('',(0.,0.,-1.));
#1553=DIRECTION('',(-1.,0.,0.));
#1554=DIRECTION('center_axis',(-0.707106781186548,0.707106781186548,0.));
#1555=DIRECTION('ref_axis',(0.,0.,1.));
#1556=DIRECTION('',(0.707106781186548,0.707106781186548,0.));
#1557=DIRECTION('',(0.,0.,1.));
#1558=DIRECTION('center_axis',(-0.707106781186543,0.707106781186552,0.));
#1559=DIRECTION('ref_axis',(0.,0.,1.));
#1560=DIRECTION('',(0.,0.,1.));
#1561=DIRECTION('',(0.707106781186552,0.707106781186543,0.));
#1562=DIRECTION('',(0.,0.,-1.));
#1563=DIRECTION('center_axis',(0.,1.,0.));
#1564=DIRECTION('ref_axis',(-1.,0.,0.));
#1565=DIRECTION('',(-1.,0.,0.));
#1566=DIRECTION('center_axis',(1.,0.,0.));
#1567=DIRECTION('ref_axis',(0.,1.,0.));
#1568=DIRECTION('',(0.,0.,1.));
#1569=DIRECTION('',(0.,1.,0.));
#1570=DIRECTION('',(0.,0.,1.));
#1571=DIRECTION('center_axis',(0.,0.,1.));
#1572=DIRECTION('ref_axis',(-1.,0.,0.));
#1573=DIRECTION('center_axis',(0.,0.,-1.));
#1574=DIRECTION('ref_axis',(-1.,0.,0.));
#1575=DIRECTION('',(0.,0.,1.));
#1576=DIRECTION('center_axis',(0.,1.,0.));
#1577=DIRECTION('ref_axis',(-1.,0.,0.));
#1578=DIRECTION('',(-1.,0.,0.));
#1579=DIRECTION('',(0.,0.,1.));
#1580=DIRECTION('center_axis',(0.,0.,1.));
#1581=DIRECTION('ref_axis',(0.,-1.,0.));
#1582=DIRECTION('center_axis',(0.,0.,-1.));
#1583=DIRECTION('ref_axis',(0.,-1.,0.));
#1584=DIRECTION('',(0.,0.,1.));
#1585=DIRECTION('center_axis',(-1.,0.,0.));
#1586=DIRECTION('ref_axis',(0.,-1.,0.));
#1587=DIRECTION('',(0.,-1.,0.));
#1588=DIRECTION('',(0.,0.,1.));
#1589=DIRECTION('center_axis',(0.,0.,1.));
#1590=DIRECTION('ref_axis',(1.,0.,0.));
#1591=DIRECTION('center_axis',(0.,0.,-1.));
#1592=DIRECTION('ref_axis',(1.,0.,0.));
#1593=DIRECTION('',(0.,0.,1.));
#1594=DIRECTION('center_axis',(0.,-1.,0.));
#1595=DIRECTION('ref_axis',(1.,0.,0.));
#1596=DIRECTION('',(1.,0.,0.));
#1597=DIRECTION('',(0.,0.,1.));
#1598=DIRECTION('center_axis',(0.,0.,1.));
#1599=DIRECTION('ref_axis',(0.,1.,0.));
#1600=DIRECTION('center_axis',(0.,0.,-1.));
#1601=DIRECTION('ref_axis',(0.,1.,0.));
#1602=DIRECTION('center_axis',(0.,0.,1.));
#1603=DIRECTION('ref_axis',(1.,0.,0.));
#1604=DIRECTION('center_axis',(0.,0.,-1.));
#1605=DIRECTION('ref_axis',(1.,0.,0.));
#1606=DIRECTION('',(0.,0.,-1.));
#1607=DIRECTION('center_axis',(0.,0.,1.));
#1608=DIRECTION('ref_axis',(-1.,0.,0.));
#1609=DIRECTION('',(0.,0.,1.));
#1610=DIRECTION('center_axis',(0.,0.,-1.));
#1611=DIRECTION('ref_axis',(-1.,0.,0.));
#1612=DIRECTION('',(0.,0.,1.));
#1613=DIRECTION('center_axis',(0.,1.,0.));
#1614=DIRECTION('ref_axis',(-1.,0.,0.));
#1615=DIRECTION('',(-1.,0.,0.));
#1616=DIRECTION('',(0.,0.,1.));
#1617=DIRECTION('center_axis',(0.,0.,1.));
#1618=DIRECTION('ref_axis',(0.,-1.,0.));
#1619=DIRECTION('center_axis',(0.,0.,-1.));
#1620=DIRECTION('ref_axis',(0.,-1.,0.));
#1621=DIRECTION('',(0.,0.,1.));
#1622=DIRECTION('center_axis',(-1.,0.,0.));
#1623=DIRECTION('ref_axis',(0.,-1.,0.));
#1624=DIRECTION('',(0.,-1.,0.));
#1625=DIRECTION('',(0.,0.,1.));
#1626=DIRECTION('center_axis',(0.,0.,1.));
#1627=DIRECTION('ref_axis',(1.,0.,0.));
#1628=DIRECTION('center_axis',(0.,0.,-1.));
#1629=DIRECTION('ref_axis',(1.,0.,0.));
#1630=DIRECTION('',(0.,0.,1.));
#1631=DIRECTION('center_axis',(0.,-1.,0.));
#1632=DIRECTION('ref_axis',(1.,0.,0.));
#1633=DIRECTION('',(1.,0.,0.));
#1634=DIRECTION('',(0.,0.,1.));
#1635=DIRECTION('center_axis',(0.,0.,1.));
#1636=DIRECTION('ref_axis',(0.,1.,0.));
#1637=DIRECTION('center_axis',(0.,0.,-1.));
#1638=DIRECTION('ref_axis',(0.,1.,0.));
#1639=DIRECTION('',(0.,0.,1.));
#1640=DIRECTION('center_axis',(1.,0.,0.));
#1641=DIRECTION('ref_axis',(0.,1.,0.));
#1642=DIRECTION('',(0.,1.,0.));
#1643=DIRECTION('center_axis',(0.,0.,1.));
#1644=DIRECTION('ref_axis',(1.,0.,0.));
#1645=DIRECTION('center_axis',(0.,0.,-1.));
#1646=DIRECTION('ref_axis',(1.,0.,0.));
#1647=DIRECTION('',(0.,0.,-1.));
#1648=DIRECTION('center_axis',(0.,0.,1.));
#1649=DIRECTION('ref_axis',(1.,0.,0.));
#1650=DIRECTION('center_axis',(0.,0.,-1.));
#1651=DIRECTION('ref_axis',(1.,0.,0.));
#1652=DIRECTION('',(0.,0.,-1.));
#1653=DIRECTION('center_axis',(1.,0.,0.));
#1654=DIRECTION('ref_axis',(0.,1.,0.));
#1655=DIRECTION('',(0.,0.,1.));
#1656=DIRECTION('',(0.,1.,0.));
#1657=DIRECTION('',(0.,0.,1.));
#1658=DIRECTION('center_axis',(0.,0.,1.));
#1659=DIRECTION('ref_axis',(-1.,0.,0.));
#1660=DIRECTION('center_axis',(0.,0.,-1.));
#1661=DIRECTION('ref_axis',(-1.,0.,0.));
#1662=DIRECTION('',(0.,0.,1.));
#1663=DIRECTION('center_axis',(0.,1.,0.));
#1664=DIRECTION('ref_axis',(-1.,0.,0.));
#1665=DIRECTION('',(-1.,0.,0.));
#1666=DIRECTION('',(0.,0.,1.));
#1667=DIRECTION('center_axis',(0.,0.,1.));
#1668=DIRECTION('ref_axis',(0.,-1.,0.));
#1669=DIRECTION('center_axis',(0.,0.,-1.));
#1670=DIRECTION('ref_axis',(0.,-1.,0.));
#1671=DIRECTION('',(0.,0.,1.));
#1672=DIRECTION('center_axis',(-1.,0.,0.));
#1673=DIRECTION('ref_axis',(0.,-1.,0.));
#1674=DIRECTION('',(0.,-1.,0.));
#1675=DIRECTION('',(0.,0.,1.));
#1676=DIRECTION('center_axis',(0.,0.,1.));
#1677=DIRECTION('ref_axis',(1.,0.,0.));
#1678=DIRECTION('center_axis',(0.,0.,-1.));
#1679=DIRECTION('ref_axis',(1.,0.,0.));
#1680=DIRECTION('',(0.,0.,1.));
#1681=DIRECTION('center_axis',(0.,-1.,0.));
#1682=DIRECTION('ref_axis',(1.,0.,0.));
#1683=DIRECTION('',(1.,0.,0.));
#1684=DIRECTION('',(0.,0.,1.));
#1685=DIRECTION('center_axis',(0.,0.,1.));
#1686=DIRECTION('ref_axis',(0.,1.,0.));
#1687=DIRECTION('center_axis',(0.,0.,-1.));
#1688=DIRECTION('ref_axis',(0.,1.,0.));
#1689=DIRECTION('center_axis',(1.,0.,0.));
#1690=DIRECTION('ref_axis',(0.,1.,0.));
#1691=DIRECTION('',(0.,0.,1.));
#1692=DIRECTION('',(0.,1.,0.));
#1693=DIRECTION('',(0.,0.,1.));
#1694=DIRECTION('center_axis',(0.,0.,1.));
#1695=DIRECTION('ref_axis',(-1.,0.,0.));
#1696=DIRECTION('center_axis',(0.,0.,-1.));
#1697=DIRECTION('ref_axis',(-1.,0.,0.));
#1698=DIRECTION('',(0.,0.,1.));
#1699=DIRECTION('center_axis',(0.,1.,0.));
#1700=DIRECTION('ref_axis',(-1.,0.,0.));
#1701=DIRECTION('',(-1.,0.,0.));
#1702=DIRECTION('',(0.,0.,1.));
#1703=DIRECTION('center_axis',(0.,0.,1.));
#1704=DIRECTION('ref_axis',(0.,-1.,0.));
#1705=DIRECTION('center_axis',(0.,0.,-1.));
#1706=DIRECTION('ref_axis',(0.,-1.,0.));
#1707=DIRECTION('',(0.,0.,1.));
#1708=DIRECTION('center_axis',(-1.,0.,0.));
#1709=DIRECTION('ref_axis',(0.,-1.,0.));
#1710=DIRECTION('',(0.,-1.,0.));
#1711=DIRECTION('',(0.,0.,1.));
#1712=DIRECTION('center_axis',(0.,0.,1.));
#1713=DIRECTION('ref_axis',(1.,0.,0.));
#1714=DIRECTION('center_axis',(0.,0.,-1.));
#1715=DIRECTION('ref_axis',(1.,0.,0.));
#1716=DIRECTION('',(0.,0.,1.));
#1717=DIRECTION('center_axis',(0.,-1.,0.));
#1718=DIRECTION('ref_axis',(1.,0.,0.));
#1719=DIRECTION('',(1.,0.,0.));
#1720=DIRECTION('',(0.,0.,1.));
#1721=DIRECTION('center_axis',(0.,0.,1.));
#1722=DIRECTION('ref_axis',(0.,1.,0.));
#1723=DIRECTION('center_axis',(0.,0.,-1.));
#1724=DIRECTION('ref_axis',(0.,1.,0.));
#1725=DIRECTION('center_axis',(0.,0.,1.));
#1726=DIRECTION('ref_axis',(1.,0.,0.));
#1727=DIRECTION('center_axis',(0.,0.,-1.));
#1728=DIRECTION('ref_axis',(1.,0.,0.));
#1729=DIRECTION('',(0.,0.,-1.));
#1730=DIRECTION('center_axis',(-1.,0.,0.));
#1731=DIRECTION('ref_axis',(0.,-1.,0.));
#1732=DIRECTION('',(0.,-1.,0.));
#1733=DIRECTION('center_axis',(0.,-1.,0.));
#1734=DIRECTION('ref_axis',(1.,0.,0.));
#1735=DIRECTION('',(1.,0.,0.));
#1736=DIRECTION('center_axis',(0.,1.,0.));
#1737=DIRECTION('ref_axis',(-1.,0.,0.));
#1738=DIRECTION('',(-1.,0.,0.));
#1739=DIRECTION('center_axis',(0.,0.,1.));
#1740=DIRECTION('ref_axis',(1.,0.,0.));
#1741=CARTESIAN_POINT('',(0.,0.,0.));
#1742=CARTESIAN_POINT('Origin',(40.8,27.97,9.));
#1743=CARTESIAN_POINT('',(41.3,28.47,9.));
#1744=CARTESIAN_POINT('',(40.3,27.47,9.));
#1745=CARTESIAN_POINT('',(39.383375,26.553375,9.));
#1746=CARTESIAN_POINT('',(40.3,27.47,10.5));
#1747=CARTESIAN_POINT('',(40.3,27.47,9.));
#1748=CARTESIAN_POINT('',(41.3,28.47,10.5));
#1749=CARTESIAN_POINT('',(39.383375,26.553375,10.5));
#1750=CARTESIAN_POINT('',(41.3,28.47,9.));
#1751=CARTESIAN_POINT('Origin',(41.3,27.47,9.));
#1752=CARTESIAN_POINT('',(6.,27.47,9.));
#1753=CARTESIAN_POINT('',(41.3,27.47,9.));
#1754=CARTESIAN_POINT('',(6.,27.47,10.5));
#1755=CARTESIAN_POINT('',(6.,27.47,9.));
#1756=CARTESIAN_POINT('',(41.3,27.47,10.5));
#1757=CARTESIAN_POINT('Origin',(5.5,27.97,9.));
#1758=CARTESIAN_POINT('',(5.,28.47,9.));
#1759=CARTESIAN_POINT('',(15.582375,17.887625,9.));
#1760=CARTESIAN_POINT('',(5.,28.47,10.5));
#1761=CARTESIAN_POINT('',(5.,28.47,9.));
#1762=CARTESIAN_POINT('',(15.582375,17.887625,10.5));
#1763=CARTESIAN_POINT('Origin',(5.,27.47,9.));
#1764=CARTESIAN_POINT('',(5.,39.47,9.));
#1765=CARTESIAN_POINT('',(5.,27.47,9.));
#1766=CARTESIAN_POINT('',(5.,39.47,10.5));
#1767=CARTESIAN_POINT('',(5.,39.47,9.));
#1768=CARTESIAN_POINT('',(5.,27.47,10.5));
#1769=CARTESIAN_POINT('Origin',(5.5,39.97,9.));
#1770=CARTESIAN_POINT('',(6.,40.47,9.));
#1771=CARTESIAN_POINT('',(9.908375,44.378375,9.));
#1772=CARTESIAN_POINT('',(6.,40.47,10.5));
#1773=CARTESIAN_POINT('',(6.,40.47,9.));
#1774=CARTESIAN_POINT('',(9.908375,44.378375,10.5));
#1775=CARTESIAN_POINT('Origin',(5.,40.47,9.));
#1776=CARTESIAN_POINT('',(40.3,40.47,9.));
#1777=CARTESIAN_POINT('',(5.,40.47,9.));
#1778=CARTESIAN_POINT('',(40.3,40.47,10.5));
#1779=CARTESIAN_POINT('',(40.3,40.47,9.));
#1780=CARTESIAN_POINT('',(5.,40.47,10.5));
#1781=CARTESIAN_POINT('Origin',(40.8,39.97,9.));
#1782=CARTESIAN_POINT('',(41.3,39.47,9.));
#1783=CARTESIAN_POINT('',(45.057375,35.712625,9.));
#1784=CARTESIAN_POINT('',(41.3,39.47,10.5));
#1785=CARTESIAN_POINT('',(41.3,39.47,9.));
#1786=CARTESIAN_POINT('',(45.057375,35.712625,10.5));
#1787=CARTESIAN_POINT('Origin',(41.3,40.47,9.));
#1788=CARTESIAN_POINT('',(41.3,40.47,10.5));
#1789=CARTESIAN_POINT('',(41.3,40.47,9.));
#1790=CARTESIAN_POINT('Origin',(-10.,-10.,9.));
#1791=CARTESIAN_POINT('',(-9.5,-10.5,10.5));
#1792=CARTESIAN_POINT('',(-10.5,-9.49999999999999,10.5));
#1793=CARTESIAN_POINT('',(-5.53512500000004,-14.464875,10.5));
#1794=CARTESIAN_POINT('',(-10.5,-9.49999999999999,9.));
#1795=CARTESIAN_POINT('',(-10.5,-9.49999999999999,9.));
#1796=CARTESIAN_POINT('',(-9.5,-10.5,9.));
#1797=CARTESIAN_POINT('',(-5.53512500000004,-14.464875,9.));
#1798=CARTESIAN_POINT('',(-9.5,-10.5,9.));
#1799=CARTESIAN_POINT('Origin',(40.4815,22.622,9.));
#1800=CARTESIAN_POINT('',(-10.5,54.744,9.));
#1801=CARTESIAN_POINT('',(-10.5,55.744,9.));
#1802=CARTESIAN_POINT('',(-9.50000000000001,55.744,9.));
#1803=CARTESIAN_POINT('',(-5.53512499999998,59.708875,9.));
#1804=CARTESIAN_POINT('',(44.3,55.744,9.));
#1805=CARTESIAN_POINT('',(45.3,55.744,9.));
#1806=CARTESIAN_POINT('',(45.3,54.744,9.));
#1807=CARTESIAN_POINT('',(51.875875,48.168125,9.));
#1808=CARTESIAN_POINT('',(45.3,25.744,9.));
#1809=CARTESIAN_POINT('',(45.3,45.744,9.));
#1810=CARTESIAN_POINT('',(46.3,24.744,9.));
#1811=CARTESIAN_POINT('',(45.125875,25.918125,9.));
#1812=CARTESIAN_POINT('',(80.463,24.744,9.));
#1813=CARTESIAN_POINT('',(80.963,24.744,9.));
#1814=CARTESIAN_POINT('',(81.463,25.744,9.));
#1815=CARTESIAN_POINT('',(70.1871249999999,14.468125,9.));
#1816=CARTESIAN_POINT('',(81.463,54.744,9.));
#1817=CARTESIAN_POINT('',(81.463,45.744,9.));
#1818=CARTESIAN_POINT('',(82.463,55.744,9.));
#1819=CARTESIAN_POINT('',(63.437125,36.718125,9.));
#1820=CARTESIAN_POINT('',(90.463,55.744,9.));
#1821=CARTESIAN_POINT('',(91.463,55.744,9.));
#1822=CARTESIAN_POINT('',(91.463,54.744,9.));
#1823=CARTESIAN_POINT('',(86.4981249999998,59.7088750000001,9.));
#1824=CARTESIAN_POINT('',(91.463,-9.49999999999999,9.));
#1825=CARTESIAN_POINT('',(91.463,-10.5,9.));
#1826=CARTESIAN_POINT('',(90.463,-10.5,9.));
#1827=CARTESIAN_POINT('',(86.498125,-14.464875,9.));
#1828=CARTESIAN_POINT('',(-10.5,-10.5,9.));
#1829=CARTESIAN_POINT('',(84.7616681698284,50.7317672316321,9.));
#1830=CARTESIAN_POINT('Origin',(86.4616681698284,50.7317672316321,9.));
#1831=CARTESIAN_POINT('',(62.056,19.547,9.));
#1832=CARTESIAN_POINT('',(62.556,20.047,9.));
#1833=CARTESIAN_POINT('Origin',(62.556,19.547,9.));
#1834=CARTESIAN_POINT('',(62.056,6.547,9.));
#1835=CARTESIAN_POINT('',(62.056,19.547,9.));
#1836=CARTESIAN_POINT('',(62.556,6.047,9.));
#1837=CARTESIAN_POINT('Origin',(62.556,6.547,9.));
#1838=CARTESIAN_POINT('',(75.556,6.047,9.));
#1839=CARTESIAN_POINT('',(62.556,6.047,9.));
#1840=CARTESIAN_POINT('',(76.056,6.547,9.));
#1841=CARTESIAN_POINT('Origin',(75.556,6.547,9.));
#1842=CARTESIAN_POINT('',(76.056,19.547,9.));
#1843=CARTESIAN_POINT('',(76.056,19.547,9.));
#1844=CARTESIAN_POINT('',(75.556,20.047,9.));
#1845=CARTESIAN_POINT('Origin',(75.556,19.547,9.));
#1846=CARTESIAN_POINT('',(62.556,20.047,9.));
#1847=CARTESIAN_POINT('',(4.906,19.547,9.));
#1848=CARTESIAN_POINT('',(5.406,20.047,9.));
#1849=CARTESIAN_POINT('Origin',(5.406,19.547,9.));
#1850=CARTESIAN_POINT('',(4.906,6.547,9.));
#1851=CARTESIAN_POINT('',(4.906,19.547,9.));
#1852=CARTESIAN_POINT('',(5.406,6.047,9.));
#1853=CARTESIAN_POINT('Origin',(5.406,6.547,9.));
#1854=CARTESIAN_POINT('',(18.406,6.047,9.));
#1855=CARTESIAN_POINT('',(5.406,6.047,9.));
#1856=CARTESIAN_POINT('',(18.906,6.547,9.));
#1857=CARTESIAN_POINT('Origin',(18.406,6.547,9.));
#1858=CARTESIAN_POINT('',(18.906,19.547,9.));
#1859=CARTESIAN_POINT('',(18.906,19.547,9.));
#1860=CARTESIAN_POINT('',(18.406,20.047,9.));
#1861=CARTESIAN_POINT('Origin',(18.406,19.547,9.));
#1862=CARTESIAN_POINT('',(5.406,20.047,9.));
#1863=CARTESIAN_POINT('',(-7.2,-5.50000000000001,9.));
#1864=CARTESIAN_POINT('Origin',(-5.5,-5.50000000000001,9.));
#1865=CARTESIAN_POINT('',(-7.2,50.744,9.));
#1866=CARTESIAN_POINT('Origin',(-5.5,50.744,9.));
#1867=CARTESIAN_POINT('',(43.006,6.547,9.));
#1868=CARTESIAN_POINT('',(43.006,19.547,9.));
#1869=CARTESIAN_POINT('',(43.006,19.547,9.));
#1870=CARTESIAN_POINT('',(43.506,6.047,9.));
#1871=CARTESIAN_POINT('Origin',(43.506,6.547,9.));
#1872=CARTESIAN_POINT('',(56.506,6.047,9.));
#1873=CARTESIAN_POINT('',(43.506,6.047,9.));
#1874=CARTESIAN_POINT('',(57.006,6.547,9.));
#1875=CARTESIAN_POINT('Origin',(56.506,6.547,9.));
#1876=CARTESIAN_POINT('',(57.006,19.547,9.));
#1877=CARTESIAN_POINT('',(57.006,19.547,9.));
#1878=CARTESIAN_POINT('',(56.506,20.047,9.));
#1879=CARTESIAN_POINT('Origin',(56.506,19.547,9.));
#1880=CARTESIAN_POINT('',(43.506,20.047,9.));
#1881=CARTESIAN_POINT('',(43.506,20.047,9.));
#1882=CARTESIAN_POINT('Origin',(43.506,19.547,9.));
#1883=CARTESIAN_POINT('',(84.7616681698284,-5.48776723163215,9.));
#1884=CARTESIAN_POINT('Origin',(86.4616681698284,-5.48776723163215,9.));
#1885=CARTESIAN_POINT('',(23.956,19.547,9.));
#1886=CARTESIAN_POINT('',(24.456,20.047,9.));
#1887=CARTESIAN_POINT('Origin',(24.456,19.547,9.));
#1888=CARTESIAN_POINT('',(23.956,6.547,9.));
#1889=CARTESIAN_POINT('',(23.956,19.547,9.));
#1890=CARTESIAN_POINT('',(24.456,6.047,9.));
#1891=CARTESIAN_POINT('Origin',(24.456,6.547,9.));
#1892=CARTESIAN_POINT('',(37.456,6.047,9.));
#1893=CARTESIAN_POINT('',(24.456,6.047,9.));
#1894=CARTESIAN_POINT('',(37.956,6.547,9.));
#1895=CARTESIAN_POINT('Origin',(37.456,6.547,9.));
#1896=CARTESIAN_POINT('',(37.956,19.547,9.));
#1897=CARTESIAN_POINT('',(37.956,19.547,9.));
#1898=CARTESIAN_POINT('',(37.456,20.047,9.));
#1899=CARTESIAN_POINT('Origin',(37.456,19.547,9.));
#1900=CARTESIAN_POINT('',(24.456,20.047,9.));
#1901=CARTESIAN_POINT('Origin',(-10.5,55.744,9.));
#1902=CARTESIAN_POINT('',(-10.5,54.744,10.5));
#1903=CARTESIAN_POINT('',(-10.5,55.744,10.5));
#1904=CARTESIAN_POINT('',(-10.5,54.744,9.));
#1905=CARTESIAN_POINT('Origin',(-10.,55.244,9.));
#1906=CARTESIAN_POINT('',(-9.50000000000001,55.744,10.5));
#1907=CARTESIAN_POINT('',(-5.53512499999998,59.708875,10.5));
#1908=CARTESIAN_POINT('',(-9.50000000000001,55.744,9.));
#1909=CARTESIAN_POINT('Origin',(44.8,55.244,9.));
#1910=CARTESIAN_POINT('',(44.3,55.744,10.5));
#1911=CARTESIAN_POINT('',(45.3,54.744,10.5));
#1912=CARTESIAN_POINT('',(51.875875,48.168125,10.5));
#1913=CARTESIAN_POINT('',(45.3,54.744,9.));
#1914=CARTESIAN_POINT('',(44.3,55.744,9.));
#1915=CARTESIAN_POINT('Origin',(45.3,24.744,9.));
#1916=CARTESIAN_POINT('',(45.3,25.744,10.5));
#1917=CARTESIAN_POINT('',(45.3,45.744,10.5));
#1918=CARTESIAN_POINT('',(45.3,25.744,9.));
#1919=CARTESIAN_POINT('Origin',(45.8,25.244,9.));
#1920=CARTESIAN_POINT('',(46.3,24.744,10.5));
#1921=CARTESIAN_POINT('',(45.125875,25.918125,10.5));
#1922=CARTESIAN_POINT('',(46.3,24.744,9.));
#1923=CARTESIAN_POINT('Origin',(90.963,-10.,9.));
#1924=CARTESIAN_POINT('',(91.463,-9.49999999999999,10.5));
#1925=CARTESIAN_POINT('',(90.463,-10.5,10.5));
#1926=CARTESIAN_POINT('',(86.498125,-14.464875,10.5));
#1927=CARTESIAN_POINT('',(90.463,-10.5,9.));
#1928=CARTESIAN_POINT('',(91.463,-9.49999999999999,9.));
#1929=CARTESIAN_POINT('Origin',(91.463,-10.5,9.));
#1930=CARTESIAN_POINT('',(91.463,54.744,10.5));
#1931=CARTESIAN_POINT('',(91.463,54.744,9.));
#1932=CARTESIAN_POINT('',(91.463,-10.5,10.5));
#1933=CARTESIAN_POINT('Origin',(90.963,55.244,9.));
#1934=CARTESIAN_POINT('',(90.463,55.744,10.5));
#1935=CARTESIAN_POINT('',(86.4981249999998,59.7088750000001,10.5));
#1936=CARTESIAN_POINT('',(90.463,55.744,9.));
#1937=CARTESIAN_POINT('Origin',(91.463,55.744,9.));
#1938=CARTESIAN_POINT('',(82.463,55.744,10.5));
#1939=CARTESIAN_POINT('',(82.463,55.744,9.));
#1940=CARTESIAN_POINT('',(91.463,55.744,10.5));
#1941=CARTESIAN_POINT('Origin',(81.963,55.244,9.));
#1942=CARTESIAN_POINT('',(81.463,54.744,10.5));
#1943=CARTESIAN_POINT('',(63.437125,36.718125,10.5));
#1944=CARTESIAN_POINT('',(81.463,54.744,9.));
#1945=CARTESIAN_POINT('Origin',(80.963,25.244,9.));
#1946=CARTESIAN_POINT('',(80.463,24.744,10.5));
#1947=CARTESIAN_POINT('',(80.463,24.744,9.));
#1948=CARTESIAN_POINT('',(81.463,25.744,10.5));
#1949=CARTESIAN_POINT('',(70.1871249999999,14.468125,10.5));
#1950=CARTESIAN_POINT('',(81.463,25.744,9.));
#1951=CARTESIAN_POINT('Origin',(81.463,24.744,9.));
#1952=CARTESIAN_POINT('',(80.963,24.744,10.5));
#1953=CARTESIAN_POINT('Origin',(23.956,6.547,9.));
#1954=CARTESIAN_POINT('',(23.956,19.547,10.5));
#1955=CARTESIAN_POINT('',(23.956,19.547,9.));
#1956=CARTESIAN_POINT('',(23.956,6.547,10.5));
#1957=CARTESIAN_POINT('',(23.956,19.547,10.5));
#1958=CARTESIAN_POINT('',(23.956,6.547,9.));
#1959=CARTESIAN_POINT('Origin',(24.456,6.547,9.));
#1960=CARTESIAN_POINT('',(24.456,6.047,10.5));
#1961=CARTESIAN_POINT('Origin',(24.456,6.547,10.5));
#1962=CARTESIAN_POINT('',(24.456,6.047,9.));
#1963=CARTESIAN_POINT('Origin',(37.456,6.047,9.));
#1964=CARTESIAN_POINT('',(37.456,6.047,10.5));
#1965=CARTESIAN_POINT('',(24.456,6.047,10.5));
#1966=CARTESIAN_POINT('',(37.456,6.047,9.));
#1967=CARTESIAN_POINT('Origin',(37.456,6.547,9.));
#1968=CARTESIAN_POINT('',(37.956,6.547,10.5));
#1969=CARTESIAN_POINT('Origin',(37.456,6.547,10.5));
#1970=CARTESIAN_POINT('',(37.956,6.547,9.));
#1971=CARTESIAN_POINT('Origin',(37.956,19.547,9.));
#1972=CARTESIAN_POINT('',(37.956,19.547,10.5));
#1973=CARTESIAN_POINT('',(37.956,19.547,10.5));
#1974=CARTESIAN_POINT('',(37.956,19.547,9.));
#1975=CARTESIAN_POINT('Origin',(37.456,19.547,9.));
#1976=CARTESIAN_POINT('',(37.456,20.047,10.5));
#1977=CARTESIAN_POINT('Origin',(37.456,19.547,10.5));
#1978=CARTESIAN_POINT('',(37.456,20.047,9.));
#1979=CARTESIAN_POINT('Origin',(24.456,20.047,9.));
#1980=CARTESIAN_POINT('',(24.456,20.047,10.5));
#1981=CARTESIAN_POINT('',(24.456,20.047,10.5));
#1982=CARTESIAN_POINT('',(24.456,20.047,9.));
#1983=CARTESIAN_POINT('Origin',(24.456,19.547,9.));
#1984=CARTESIAN_POINT('Origin',(24.456,19.547,10.5));
#1985=CARTESIAN_POINT('Origin',(86.4616681698284,-5.48776723163215,9.));
#1986=CARTESIAN_POINT('',(84.7616681698284,-5.48776723163215,10.5));
#1987=CARTESIAN_POINT('Origin',(86.4616681698284,-5.48776723163215,10.5));
#1988=CARTESIAN_POINT('',(84.7616681698284,-5.48776723163215,9.));
#1989=CARTESIAN_POINT('Origin',(43.506,6.547,9.));
#1990=CARTESIAN_POINT('',(43.006,6.547,10.5));
#1991=CARTESIAN_POINT('',(43.006,6.547,9.));
#1992=CARTESIAN_POINT('',(43.506,6.047,10.5));
#1993=CARTESIAN_POINT('Origin',(43.506,6.547,10.5));
#1994=CARTESIAN_POINT('',(43.506,6.047,9.));
#1995=CARTESIAN_POINT('Origin',(56.506,6.047,9.));
#1996=CARTESIAN_POINT('',(56.506,6.047,10.5));
#1997=CARTESIAN_POINT('',(43.506,6.047,10.5));
#1998=CARTESIAN_POINT('',(56.506,6.047,9.));
#1999=CARTESIAN_POINT('Origin',(56.506,6.547,9.));
#2000=CARTESIAN_POINT('',(57.006,6.547,10.5));
#2001=CARTESIAN_POINT('Origin',(56.506,6.547,10.5));
#2002=CARTESIAN_POINT('',(57.006,6.547,9.));
#2003=CARTESIAN_POINT('Origin',(57.006,19.547,9.));
#2004=CARTESIAN_POINT('',(57.006,19.547,10.5));
#2005=CARTESIAN_POINT('',(57.006,19.547,10.5));
#2006=CARTESIAN_POINT('',(57.006,19.547,9.));
#2007=CARTESIAN_POINT('Origin',(56.506,19.547,9.));
#2008=CARTESIAN_POINT('',(56.506,20.047,10.5));
#2009=CARTESIAN_POINT('Origin',(56.506,19.547,10.5));
#2010=CARTESIAN_POINT('',(56.506,20.047,9.));
#2011=CARTESIAN_POINT('Origin',(43.506,20.047,9.));
#2012=CARTESIAN_POINT('',(43.506,20.047,10.5));
#2013=CARTESIAN_POINT('',(43.506,20.047,10.5));
#2014=CARTESIAN_POINT('',(43.506,20.047,9.));
#2015=CARTESIAN_POINT('Origin',(43.506,19.547,9.));
#2016=CARTESIAN_POINT('',(43.006,19.547,10.5));
#2017=CARTESIAN_POINT('Origin',(43.506,19.547,10.5));
#2018=CARTESIAN_POINT('',(43.006,19.547,9.));
#2019=CARTESIAN_POINT('Origin',(43.006,6.547,9.));
#2020=CARTESIAN_POINT('',(43.006,19.547,10.5));
#2021=CARTESIAN_POINT('Origin',(-5.5,50.744,9.));
#2022=CARTESIAN_POINT('',(-7.20000000000001,50.744,10.5));
#2023=CARTESIAN_POINT('Origin',(-5.5,50.744,10.5));
#2024=CARTESIAN_POINT('',(-7.2,50.744,9.));
#2025=CARTESIAN_POINT('Origin',(-5.5,-5.50000000000001,9.));
#2026=CARTESIAN_POINT('',(-7.20000000000001,-5.50000000000001,10.5));
#2027=CARTESIAN_POINT('Origin',(-5.5,-5.50000000000001,10.5));
#2028=CARTESIAN_POINT('',(-7.2,-5.50000000000001,9.));
#2029=CARTESIAN_POINT('Origin',(4.906,6.547,9.));
#2030=CARTESIAN_POINT('',(4.90600000000001,19.547,10.5));
#2031=CARTESIAN_POINT('',(4.906,19.547,9.));
#2032=CARTESIAN_POINT('',(4.90600000000001,6.547,10.5));
#2033=CARTESIAN_POINT('',(4.906,19.547,10.5));
#2034=CARTESIAN_POINT('',(4.906,6.547,9.));
#2035=CARTESIAN_POINT('Origin',(5.406,6.547,9.));
#2036=CARTESIAN_POINT('',(5.406,6.047,10.5));
#2037=CARTESIAN_POINT('Origin',(5.406,6.547,10.5));
#2038=CARTESIAN_POINT('',(5.406,6.047,9.));
#2039=CARTESIAN_POINT('Origin',(18.406,6.047,9.));
#2040=CARTESIAN_POINT('',(18.406,6.047,10.5));
#2041=CARTESIAN_POINT('',(5.406,6.047,10.5));
#2042=CARTESIAN_POINT('',(18.406,6.047,9.));
#2043=CARTESIAN_POINT('Origin',(18.406,6.547,9.));
#2044=CARTESIAN_POINT('',(18.906,6.547,10.5));
#2045=CARTESIAN_POINT('Origin',(18.406,6.547,10.5));
#2046=CARTESIAN_POINT('',(18.906,6.547,9.));
#2047=CARTESIAN_POINT('Origin',(18.906,19.547,9.));
#2048=CARTESIAN_POINT('',(18.906,19.547,10.5));
#2049=CARTESIAN_POINT('',(18.906,19.547,10.5));
#2050=CARTESIAN_POINT('',(18.906,19.547,9.));
#2051=CARTESIAN_POINT('Origin',(18.406,19.547,9.));
#2052=CARTESIAN_POINT('',(18.406,20.047,10.5));
#2053=CARTESIAN_POINT('Origin',(18.406,19.547,10.5));
#2054=CARTESIAN_POINT('',(18.406,20.047,9.));
#2055=CARTESIAN_POINT('Origin',(5.406,20.047,9.));
#2056=CARTESIAN_POINT('',(5.406,20.047,10.5));
#2057=CARTESIAN_POINT('',(5.406,20.047,10.5));
#2058=CARTESIAN_POINT('',(5.406,20.047,9.));
#2059=CARTESIAN_POINT('Origin',(5.406,19.547,9.));
#2060=CARTESIAN_POINT('Origin',(5.406,19.547,10.5));
#2061=CARTESIAN_POINT('Origin',(62.056,6.547,9.));
#2062=CARTESIAN_POINT('',(62.056,19.547,10.5));
#2063=CARTESIAN_POINT('',(62.056,19.547,9.));
#2064=CARTESIAN_POINT('',(62.056,6.547,10.5));
#2065=CARTESIAN_POINT('',(62.056,19.547,10.5));
#2066=CARTESIAN_POINT('',(62.056,6.547,9.));
#2067=CARTESIAN_POINT('Origin',(62.556,6.547,9.));
#2068=CARTESIAN_POINT('',(62.556,6.047,10.5));
#2069=CARTESIAN_POINT('Origin',(62.556,6.547,10.5));
#2070=CARTESIAN_POINT('',(62.556,6.047,9.));
#2071=CARTESIAN_POINT('Origin',(75.556,6.047,9.));
#2072=CARTESIAN_POINT('',(75.556,6.047,10.5));
#2073=CARTESIAN_POINT('',(62.556,6.047,10.5));
#2074=CARTESIAN_POINT('',(75.556,6.047,9.));
#2075=CARTESIAN_POINT('Origin',(75.556,6.547,9.));
#2076=CARTESIAN_POINT('',(76.056,6.547,10.5));
#2077=CARTESIAN_POINT('Origin',(75.556,6.547,10.5));
#2078=CARTESIAN_POINT('',(76.056,6.547,9.));
#2079=CARTESIAN_POINT('Origin',(76.056,19.547,9.));
#2080=CARTESIAN_POINT('',(76.056,19.547,10.5));
#2081=CARTESIAN_POINT('',(76.056,19.547,10.5));
#2082=CARTESIAN_POINT('',(76.056,19.547,9.));
#2083=CARTESIAN_POINT('Origin',(75.556,19.547,9.));
#2084=CARTESIAN_POINT('',(75.556,20.047,10.5));
#2085=CARTESIAN_POINT('Origin',(75.556,19.547,10.5));
#2086=CARTESIAN_POINT('',(75.556,20.047,9.));
#2087=CARTESIAN_POINT('Origin',(62.556,20.047,9.));
#2088=CARTESIAN_POINT('',(62.556,20.047,10.5));
#2089=CARTESIAN_POINT('',(62.556,20.047,10.5));
#2090=CARTESIAN_POINT('',(62.556,20.047,9.));
#2091=CARTESIAN_POINT('Origin',(62.556,19.547,9.));
#2092=CARTESIAN_POINT('Origin',(62.556,19.547,10.5));
#2093=CARTESIAN_POINT('Origin',(86.4616681698284,50.7317672316321,9.));
#2094=CARTESIAN_POINT('',(84.7616681698284,50.7317672316321,10.5));
#2095=CARTESIAN_POINT('Origin',(86.4616681698284,50.7317672316321,10.5));
#2096=CARTESIAN_POINT('',(84.7616681698284,50.7317672316321,9.));
#2097=CARTESIAN_POINT('Origin',(81.463,55.744,9.));
#2098=CARTESIAN_POINT('',(81.463,45.744,10.5));
#2099=CARTESIAN_POINT('Origin',(-10.5,-10.5,9.));
#2100=CARTESIAN_POINT('',(-10.5,-10.5,10.5));
#2101=CARTESIAN_POINT('Origin',(45.3,55.744,9.));
#2102=CARTESIAN_POINT('',(45.3,55.744,10.5));
#2103=CARTESIAN_POINT('Origin',(40.4815,22.622,10.5));
#2104=UNCERTAINTY_MEASURE_WITH_UNIT(LENGTH_MEASURE(0.01),#2108,
'DISTANCE_ACCURACY_VALUE',
'Maximum model space distance between geometric entities at asserted c
onnectivities');
#2105=UNCERTAINTY_MEASURE_WITH_UNIT(LENGTH_MEASURE(0.01),#2108,
'DISTANCE_ACCURACY_VALUE',
'Maximum model space distance between geometric entities at asserted c
onnectivities');
#2106=(
GEOMETRIC_REPRESENTATION_CONTEXT(3)
GLOBAL_UNCERTAINTY_ASSIGNED_CONTEXT((#2104))
GLOBAL_UNIT_ASSIGNED_CONTEXT((#2108,#2110,#2111))
REPRESENTATION_CONTEXT('','3D')
);
#2107=(
GEOMETRIC_REPRESENTATION_CONTEXT(3)
GLOBAL_UNCERTAINTY_ASSIGNED_CONTEXT((#2105))
GLOBAL_UNIT_ASSIGNED_CONTEXT((#2108,#2110,#2111))
REPRESENTATION_CONTEXT('','3D')
);
#2108=(
LENGTH_UNIT()
NAMED_UNIT(*)
SI_UNIT(.MILLI.,.METRE.)
);
#2109=(
LENGTH_UNIT()
NAMED_UNIT(*)
SI_UNIT($,.METRE.)
);
#2110=(
NAMED_UNIT(*)
PLANE_ANGLE_UNIT()
SI_UNIT($,.RADIAN.)
);
#2111=(
NAMED_UNIT(*)
SI_UNIT($,.STERADIAN.)
SOLID_ANGLE_UNIT()
);
#2112=SHAPE_DEFINITION_REPRESENTATION(#2113,#2114);
#2113=PRODUCT_DEFINITION_SHAPE('',$,#2116);
#2114=SHAPE_REPRESENTATION('',(#1292),#2106);
#2115=PRODUCT_DEFINITION_CONTEXT('part definition',#2120,'design');
#2116=PRODUCT_DEFINITION('osupad','osupad v4',#2117,#2115);
#2117=PRODUCT_DEFINITION_FORMATION('',$,#2122);
#2118=PRODUCT_RELATED_PRODUCT_CATEGORY('osupad v4','osupad v4',(#2122));
#2119=APPLICATION_PROTOCOL_DEFINITION('international standard',
'automotive_design',2009,#2120);
#2120=APPLICATION_CONTEXT(
'Core Data for Automotive Mechanical Design Process');
#2121=PRODUCT_CONTEXT('part definition',#2120,'mechanical');
#2122=PRODUCT('osupad','osupad v4',$,(#2121));
#2123=PRESENTATION_STYLE_ASSIGNMENT((#2126));
#2124=PRESENTATION_STYLE_ASSIGNMENT((#2127));
#2125=PRESENTATION_STYLE_ASSIGNMENT((#2128));
#2126=SURFACE_STYLE_USAGE(.BOTH.,#2129);
#2127=SURFACE_STYLE_USAGE(.BOTH.,#2130);
#2128=SURFACE_STYLE_USAGE(.BOTH.,#2131);
#2129=SURFACE_SIDE_STYLE('',(#2132));
#2130=SURFACE_SIDE_STYLE('',(#2133));
#2131=SURFACE_SIDE_STYLE('',(#2134));
#2132=SURFACE_STYLE_FILL_AREA(#2135);
#2133=SURFACE_STYLE_FILL_AREA(#2136);
#2134=SURFACE_STYLE_FILL_AREA(#2137);
#2135=FILL_AREA_STYLE('Steel - Satin',(#2138));
#2136=FILL_AREA_STYLE('ABS (White) (1)',(#2139));
#2137=FILL_AREA_STYLE('Aluminum - Anodized Glossy (Blue)',(#2140));
#2138=FILL_AREA_STYLE_COLOUR('Steel - Satin',#2141);
#2139=FILL_AREA_STYLE_COLOUR('ABS (White) (1)',#2142);
#2140=FILL_AREA_STYLE_COLOUR('Aluminum - Anodized Glossy (Blue)',#2143);
#2141=COLOUR_RGB('Steel - Satin',0.627450980392157,0.627450980392157,0.627450980392157);
#2142=COLOUR_RGB('ABS (White) (1)',0.290196078431373,0.290196078431373,
0.290196078431373);
#2143=COLOUR_RGB('Aluminum - Anodized Glossy (Blue)',0.192156862745098,
0.529411764705882,0.388235294117647);
ENDSEC;
END-ISO-10303-21;
